<?xml version="1.0" encoding="utf-8"?>
<!-- Generator: Adobe Illustrator 27.0.1, SVG Export Plug-In . SVG Version: 6.00 Build 0)  -->
<svg version="1.1" id="Layer_1" xmlns="http://www.w3.org/2000/svg" xmlns:xlink="http://www.w3.org/1999/xlink" x="0px" y="0px"
	 viewBox="0 0 404 434.6" style="enable-background:new 0 0 404 434.6;" xml:space="preserve">
<g>
	<path d="M5.7,124.9C5.1,120.6,1,125,1,125s-2.4,7.3,0.2,8.4C3.8,134.5,6.2,129.3,5.7,124.9z"/>
	<path d="M25,351.9c-8-3.2-4.3,8.6-4.3,8.6s10.1,11.6,14.5,7.9C39.6,364.6,33,355.1,25,351.9z"/>
	<path d="M401.9,245.6C401.9,245.6,401.9,245.6,401.9,245.6c0.9-8.1,1.4-16.4,1.4-24.8c0-71.3-34.8-134.2-87.7-171.5c0,0,0,0,0,0
		c-40.8-32.4-43.1-50-57.3-47.1c-14.2,2.9-25.2,0-19.4,5.9c3.8,3.9,13,4.4,24.6,15c-19.1-6.3-39.4-9.6-60.5-9.6
		c-2.9,0-5.8,0.1-8.7,0.2c0,0-0.1,0-0.1,0c-90.9-4.4-176,83.7-176,83.7c-21,25.3-4.5,19.4-4.5,19.4c12.5-13,25.2-23.4,37.8-31.7
		C20.9,121.5,2.5,169,2.5,220.9c0,87.5,52.4,162.3,126.4,192.7c9.1,4.2,18.2,7.4,26.6,8.7c0,0,0,0,0,0c4.1,1,8.2,1.9,12.4,2.7
		c24.1,6.5,41.5,17.3,63.7,1c43.1-6.4,81.7-26.9,111.4-57c0,0,0,0,0,0C365,356.4,414.9,315.7,401.9,245.6z M383.1,278.3
		c-6.8,15.3-24.4,62.8-34.1,62.8c-9.7,0,25.5-42.9,27.3-61.7c1.7-18.8,10.8-82.8,10.8-82.8S389.9,263.1,383.1,278.3z"/>
</g>
</svg>
