<?xml version="1.0" encoding="UTF-8"?><svg id="Layer_1" xmlns="http://www.w3.org/2000/svg" viewBox="0 0 1336.49 11.47"><defs><style>.cls-1{fill:#fff;}.cls-2{fill:#FFF;}</style></defs><path class="cls-1" d="M.18,10.37S894.18-3.63,1336.18,3.37"/><g><path class="cls-2" d="M1336.17,4.04c.7-.07,.31-.28-1.63-.26l-1.38,.31,3.01-.05Z"/><path class="cls-2" d="M1323.14,3.27c-2.28,.13-4.91,.38-3.44,.7,2.26-.29,2.81-.15,5.24-.5,1.94-.01,3.38,.15,3.05,.27,.69-.08,3.01,.11,4.06-.09-2.52-.29-5.72-.34-9.06-.17-.72-.08-.02-.16,.15-.22Z"/><path class="cls-2" d="M1133.68,1.16l1.22,.04c-.33-.02-.75-.04-1.22-.04Z"/><path class="cls-2" d="M1016.28,.8c.89,0,1.27-.04,1.31-.07-.83,.02-1.51,.04-1.31,.07Z"/><path class="cls-2" d="M996.24,.46c.43,0,.79,.01,1.18,.02-.45-.03-.9-.05-1.18-.02Z"/><path class="cls-2" d="M1133.68,1.16l-3.14-.11c-.22,.11,1.61,.08,3.14,.11Z"/><path class="cls-2" d="M1297,3.75c.66,0,1.2-.03,1.7-.07-.54,0-1.06,.01-1.6,.02-.03,.02-.05,.03-.1,.05Z"/><path class="cls-2" d="M1185.43,1.15h.95c.28-.03,.54-.07,.79-.12l-1.75,.12Z"/><path class="cls-2" d="M1225.15,1.36c-.9-.02-1.21,.26-1.56,.38,.51-.11,1.17-.16,1.96-.18,.02-.05-.1-.12-.4-.2Z"/><path class="cls-2" d="M1288.12,2.5l1.12-.02c-.29,0-.78,.02-1.12,.02Z"/><path class="cls-2" d="M1157.01,.91c-.07-.04-.21-.08-.36-.1,0,.04,.14,.07,.36,.1Z"/><path class="cls-2" d="M46.23,11.01s-.01-.03,0-.05c-.23,.03-.3,.05,0,.05Z"/><path class="cls-2" d="M.18,10.3l.64-.02c.07-.05,.14-.11,.14-.16l-.77,.18Z"/><path class="cls-2" d="M959.56,.13c.07,0,.1,0,.16,0,.96-.03,.42-.03-.16,0Z"/><path class="cls-2" d="M622.82,2.05c3.82,.22-6.21,.37-.46,.61-.54-.11,5.22-.48,.46-.61Z"/><path class="cls-2" d="M1295.98,3.7c-.54,0-1.08-.01-1.63-.02,.74,.02,1.24,.02,1.63,.02Z"/><path class="cls-2" d="M622.36,2.66h0s.59,.02,.59,.02c-.25-.01-.38-.02-.59-.02Z"/><path class="cls-2" d="M875.04,.54c.17,.05,.51,.09,.86,.12-.03-.03-.22-.06-.86-.12Z"/><path class="cls-2" d="M938.01,.72l-1.56-.03c.62,.02,1.12,.03,1.56,.03Z"/><path class="cls-2" d="M842.35,1.05c-.85-.02-1.14-.06-2.29-.01,.11,.01,.21,.02,.35,.03,.42-.04,.97-.06,1.94-.02Z"/><path class="cls-2" d="M808.32,1.22c.18,.02,.42,.04,.63,.05,.34,0,.73-.01,1.08-.02l-1.71-.03Z"/><path class="cls-2" d="M149.63,9.44c-.75-.07-1.21-.15-1.57-.23,.53,.19-4.47,.33,1.57,.23Z"/><path class="cls-2" d="M1296.99,3.59c-.2,.07-.49,.1-1.01,.11,.39,0,.77,0,1.13,0,.1-.04,.12-.08-.12-.11Z"/><path class="cls-2" d="M840.97,3.27l-5.41-.02c1.51,0,3.48,.01,5.41,.02Z"/><path class="cls-2" d="M393.72,6.49l-1.24,.05c.48,0,.92-.01,1.24-.05Z"/><path class="cls-2" d="M819.53,3.37c-.97-.09-1.99-.15-3.05-.18-.22,.02-.48,.04-.63,.08l3.67,.1Z"/><path class="cls-2" d="M148.04,9.21s.01,0,.01,0c0,0,0,0-.01,0Z"/><path class="cls-2" d="M112.45,10.36c5.15-.06,2.41-.39,3.5-.62,6.15-.19,2.85,.23,4.94,.39,3.84-.15,6.78-.53,9.64-.55,.21,.06,.77,.07,.12,.16,4.05-.35,12.05-.18,16.77-.61,.35,.03,.53,.06,.62,.08-.77-.18-.89-.36-.73-.5,2.31-.04,4.28-.29,5.15-.06-1.42,.01-1.53,.11-2.19,.19l2.42-.14c2.18,.32-3.3,.16-3.3,.42,4.72-.17,10.21-.53,13.83-.48,.76,.33-8.45,.22-3.62,.46l-5.6-.06c4.28,.48-3.4,0,.54,.53,7.36,0,8.23-.28,15.58-.27,1.65-.21-.55-.27,1.1-.48,10.43-.47,8.23,.75,15.89,.2,1.98-.25,2.75-.69,8.21-.53l-1.86,.41c7.13-.05,4.06-.6,11.53-.44-1.32,.17-5.6,.2-4.52,.23,4.84,.24,3.42-.26,7.13-.31l.77,.33c7.59-.21,15.94-.44,24.35-.66-.46,.11-1.9,.23,.06,.31,10.6-.3,22.63-.23,32.85-.15l3.9-.34c.91,0,1.69,.11,.7,.18,3.99,.06,.2-.19,2.12-.33,2.27-.05,3,.13,1.56,.24,7.03-.33,20.02-.78,27.43-.55l-1.44,.1c5.77,.05,6.5-.68,11.86-.47l-1.03,.06c12.52-.01,26.36-.43,35.91-.1,1.81-.44,12.39,.05,13.19-.55,7.15,.21,5.11,.34,15.18,.43,2.69,0,4-.41,7.33-.51l.08,.31,4.51-.37,2.41,.34,3.12-.11c-1.24,0-2.64-.11-2.45-.2,2.43-.1,5.4-.08,7.78-.01,2.38,.06,4.16,.17,4.22,.25l11.52-.38c-.25,.13-2.18,.19-3.71,.28,6.15-.38,1.12,.31,6.75-.03-.76-.06,.41-.19,.53-.25,2.81,.16,9.21,.1,13.94-.03l-.91,.22c8.55-.03,18.02-.28,27.61-.37-3.44-.06-2.66-.44,.16-.5l1.13,.31c1.81-.22-2.94-.09,.79-.38,3.58,0,2.41,.35,.36,.47l4.36-.16c.26,.09-.76,.16-1.03,.28,1.79-.22,7.52,.25,10.1-.13l.25,.09c9.59-.15,13.94-.22,21.75-.34,.15-.28,3.21-.25,5.53-.5,5.74,.04,12.11,.2,19.03,.12,4.86-.18,1.42-.25,3.6-.44,.36,.25,7.27,.17,3.69,.38,8.3-.11,10.6-.14,21.1-.44-1.14-.09-2.42-.13-1.76-.22,1.9-.06,4.34,.07,4.06,.19l-.5,.03c11.78-.49,27.21,.51,36.59-.11l-.53,.03,9.73-.36c4.48,0-2.68,.22,.63,.35,10.49-.52,16.59-.08,25.23-.42,6.7,.71,23.75-.23,32.78,.19l-.52-.17c2.33-.19,2.82,.08,4.55,.11-.25-.14-2.53-.14-1.08-.25,19.77-.36,40.82-.04,61.1-.02,7.42,0,4.2-.94,13.55-.57l-2.65,.35c14.96-.48,30.6-.16,45.25-.57-.87,.08-.9,.18-2.33,.19,1.55,.11,4.41,.1,6.89,.03,2.48-.07,4.58-.18,4.61-.28,2.28,0,.53,.17,1.94,.27,3.1,.12,7.79-.35,9.44-.12,.28,.04-.87,.08-1.44,.1,2.02-.13,9.42-.02,7.49-.29,5.5,.1,10.52-.18,14.9-.04,2.86-.33,9.41,.1,10.32-.35-.39,.45,9.64,.32,13.12,.1-1.16,.14,3.02,.13,1.66,.33,3.97-.02,7.6-.12,6.91-.35,7.31,.52,14.69-.49,18.81,.19,11.78-.28,22.69-.49,33.29-.63-.38,.45-11.72,.09-11.26,.56,10.06-.22,15.86-.63,25.83-.55,2.58,.05-1.47,.2-2.34,.28,10.05-.22,19.43-.03,28.37-.3-.02,.04-.99,.09-1.9,.13,1.76-.02,4.1,.06,3.9-.15l-1.72,.06c-2.81-.3,7-.63,7.31-.79-2.99,.59,8.83,.14,4.08,.89,1.16-.04,2.61-.14,2.35-.27,1.72,.04,2.27,.12,.52,.28,6.31-.12,4.07-.33,9.79-.33-.02,.1-1.17,.14-1.77,.26,2.89-.2,5.8-.39,10.64-.31-.29,.06,.27,.14-1.17,.14,8.3-.04,14.14-.53,23.25-.35-2.69,.43,3.1,.14,3.58,.51l4.9-.12-1.96-.18c4.29,0,8.08-.27,11.77-.15l-3.19,.16,8.04-.08-4.55-.14c4.34-.2-.47-.47,5.24-.37-1.16,.04,4.29,0,6.52,.22h-.01c2.12-.12,4.3-.25,7.48-.16,.82,.12-.66,.41-.13,.49,2.09-.31,10.04-.1,12.69-.43-.88,.08-.93,.27-.64,.31l1.76-.26c1.99,.08,2.28,.12,1.95,.28,5.98,.06-1.9-.48,5.19-.26-.56,.02-.29,.06-1.45,.09,7.12,.12,13.76-.13,20.31,.01,1.93,.38-5.72,.08-3.51,.4,9.44-.05,19.54-.4,28.67-.29l-1.7-.05c1.27-.53,6.8,.28,11.42,.04-1.13,.04-1.48,.29-1.18,.23,6.25,.1,12.79-.1,22.26-.24l-1.17,.13c3.68,.13,9.71,.09,13.69,.16,1.18-.13,3.46-.11,2.08-.31,12.27,.79,23.42-.28,34.31,.42-1.3,0-3.1,.1-2.07,.11l9.28-.06c-.73-.24-1.22-.15-3.16-.34,1.17-.13,3.79-.22,6.09-.2-4.17,.13,.03,.37,1.84,.51-.3-.07,.32-.15,.16-.22,4.84,.44,.82-.46,7.43-.14l-.35,.12c2.48-.05,4.76-.19,7.43-.14,1.11,.27-2.64,.11-2.81,.33,3.75,0,7.4-.46,10.8-.17-1.59,.03-3.88,.08-5.48,.11,3.69,.34,4.12,.26,6.87,.33h-.27s6.35,.17,6.35,.17l-1.62-.1c4.7-.67,9.56-.06,15.89-.48-6.15,.39-1.02,.24-1.49,.54,1.61,.09,4.07,.21,3.37,.29,2.99-.22,4.99,.23,9.21-.1,.19,.1,3.2,.03,2.52,.27,3.89-.03-.92-.18-.59-.3,5.99-.26,14.07,.58,22.69,.22,7.43-.1,8.81-.41,15.7-.49,2.32,.18-1.91,.33-1.91,.33,3.75,.19,6.58,.2,10.11,.13-.72,.08,.02,.16,1.1,.28,2.84,0,1.9-.33,5.64-.14-.64,.1-1.47,.26-2.84,.36,3.35-.08,6.65-.16,10.12-.24,.92,.18-2.09,.23-3.32,.33,3.89-.03,10.08-.03,11.29-.28l-2.49-.13c1.42,0,.73,.24-.32,.28-3.34,.17-4.81-.15-5-.25l2.47-.03c-2.52-.6-9.91-.03-14.87-.12l2.07-.39-5.1,.28c-1.08-.12-1.82-.36,.63-.4-3.56-.25-3.15,.11-6.21-.16-.34-.04-.18-.06,.13-.07l-3.48,.08c.68-.08-.57-.3,1.56-.21-6.24-.32-10.07,.19-12.41-.16l.52-.02c-8.66,.03-.84,.3-7.34,.57l-4.36-.81-.85,.29c-.89-.02-2.66-.07-2.33-.18-3.33,.17,.57,.14-1.37,.31-4.3-.33-11.86-.02-12.82-.5-1.55,.22,4.11,.21-.48,.34-1.3-.53-5.31,.05-9.23-.21,1.21-.26,4.93-.09,1-.36-2.37,.44-7.65-.15-10.96-.08-.16,.36-7.21,.1-12.77,.19,.35-.12-10.46-.27-15.63-.43l.15-.06c-1,.36-6.34,.26-10.22,.31,.15-.22,.85-.3,2.96-.39l-3.65-.02c-.86,.11-2,.17-4.37,.19l.92-.27c-4.86-.02-9.79,.26-16.04,.03-.35,.25,4.97,.75-1.64,.87-.24-.14-.49-.38,1.24-.42-.57,.01-2.02,.1-3.16,.04l2.64-.22c-2.85-.12-1.49,.18-3.77,.15,.05-.2-1.69-.15-1.36-.31,.58-.02,1.99,.09,2.86,.02-2.57-.05-5.67-.19-6.7-.35,.22,.11,0,.27-1.88,.28-4.86-.02-1.66-.25-4.5-.36-1.18,.13-4.28-.02-4.36,.28-1.42,0-1.69-.14-2.23-.22-2.52,.12-11.75,0-8.92,.33l.65,.02c-.12,0-.26,0-.41,.01h.02s-.02,0-.02,0c-8.25,.27-17.13-.21-25.31-.1v-.1c-4.87,.1-10.86,.04-14.35,.25-1.44,0-3.41-.19-2.79-.3-3.73,.07-4.15,.18-9.55,0,3.75-.16-1.29-.16,3.85-.12-4.85-.1-5.95-.26-11.16,0,1.77-.25-3.65-.33-5.96-.26l3.4,.19c-2.59,.03-4.86,0-7.16-.02l1.25-.33c-9.93-.42-17.9,.63-25.46-.03-2.63,.23,5.39,.16,3.04,.43-4.57-.04-9.32-.51-10.75-.51-6.25-.18-5.84,.49-12.38,.37,.84,.12,1.63,.43-3.26,.55-4.57-.04-5.62-.49-2.73-.59,1.1-.01,1.62,.03,1.58,.07,1.48-.04,3.41-.1,1.6-.22l-.59,.12c-2.27-.12-8.55-.1-7.08-.3-3.45,.12-1.48,.2,1.08,.26-5.86-.17-9.16,0-15.19-.11,.96,.06,1.84,.2,.89,.2-8.85-.14-3.9,.23-9.89,.29-3.41-.18,1.22-.43-4.81-.28-3.69-.12-.78-.31,.68-.41-5.5,.23-10.27-.14-13.42-.18l2.9-.1c-1.73,.06-3.15,.06-4.6,.06l1.65,.24c-1.7-.04-3.14-.04-3.11-.14-1.75,.16,1.34,.39-2.14,.61-2.27-.12-6.9,.14-7.69-.18,7.13,.1-.79-.32,5.25-.37-1.16,.04-2.58,.04-4.29,0-.26-.03,.24-.07,.71-.08-6.82-.28-3.14,.36-10.21,.36,.9-.18-1.64-.34-2.79-.3,2.85,0,1.36,.29-1.25,.43-4.53-.14-4.93,.11-7.3,.1l2.71,.06c-.92,.18-3.19,.17-6.35,.23-.27-.14,2.87-.11,1.74-.16-3.51,.32-7.93-.3-12.82-.07-2.27-.11-.22-.33-2.21-.41-5.48,.25-5.94-.22-11.7-.01,1.66,.23,1.95,.17-2.11,.42l9.48-.2-6.08,.37c2.86,0,6.03-.17,7.75-.14-2.9,.2-2.6,.14-1.23,.34-3.91-.34-7.76,.24-12.28,0l.14-.59c-6.8-.24-12.08,.34-20.91,.23l2.84,.09c-1.18,.24-5.45,.05-8.31,.16,.27-.2-1.52-.26-2.74-.38,.15,.15-6.46,0-7.26,.41l-3.94-.25c-7.13-.08-8.14,.59-14.99,.55,2.06-.22-1.05-.35,3.54-.52-2.29,0-4.35-.02-4.38,.11-1.34-.12-6.35,.29-8.45,.11-.96,.09-1.28,.3-3.85,.29-.28-.04,0-.1,0-.1,0,.1-4.02,.15-1.78,.36-7.05-.6-19.7,.15-25.84-.35-4.99,.07-11.01,.16-15.55,.23,.29-.06,.01-.1,.87-.08-6.26-.15-3.84,.59-10.96,.42-3.64-.3,3.78-.19,1.51-.3-.99-.64-8.59,.14-13.38-.22l1.16-.04c-3.66-.2-8.93,.3-14.91,.28,0,0,.29-.06,.03-.1-4.09,.35-11.83,.51-17.59,.63,1.79-.26,2.61-.15,1.52-.4-2.58,.05,.76,.41-4.39,.51-1.67-.13-5.39-.23-5.88-.5l4.86-.04c-2.49-.34-6.29,.05-8.85,0l.33-.16c-7.44,.09-7.54,.48-15.54,.51l.83,.11c-4.37,.42-3.67-.19-8.03,.13l-1.32-.39c-2.88,.12-10.1,.46-15.27,.57,2.93-.31,8.98-.51,12.73-.71-2.86,.02-9.72,.1-11.21,.31,1.15-.05,2.6-.15,3.74-.1-3.51,.34-8.12,.52-13.82,.56,1-.77-14.85-.08-18.99-.65-10.08,.36-20,.02-31.74,.16,4.17,.57-3.43,.04-2.7,.65-2.73,.06-3.78,.06-4.02,.02l-8.29-.3c-1.97-.16,2.6-.15,2.35-.29-5.99,0-2.51-.24-6.48-.37,.81,.21-2.08,.33-5.49,.28l4.81,.24c-8.37,.4-7.24-.45-15.67-.05l2.67-.22c-4.33,.15-15.97,.14-20.21,.66-.77-.06-1.78-.22,.13-.28-10.35,.02-23.02,.72-31.07,.49l.78-.16c-1.93,.06-3.36,.31-5.78,.18,.12-.06,.78-.16-.12-.16-1.02,.06-5.12,.31-7.68,.24l2.18-.19c-10.09-.11-15.48,.55-23.94,.72,.02-.44-7.92-.52-11.89-.55l.14-.06c-11.75,.06-19.96,.56-30.84,.85-6.76-.41-22.88,.03-33.74-.13,1.66,.06-.27,.35-2.2,.41-2.55-.06-7.04,.38-6.64-.03h.91c-1.92-.38-7.16-.22-11.25-.19l-.67,.53c-10.7-.67-28.01,.58-33.86-.05-2.58,.16-5.77,.19-8.33,.35l.13-.28c-7.15,0-10.72,.01-19.56,.18l1.8-.22c-4.98,.04-6.28,.89-10.88,.95l-1.39-.41c-8.7,.1-17.5-.17-26.09,.31,.14-.06,.39-.19,1.8-.22-4.09,.03-15.84-.11-14.34,.46-.11-.38-8.97,.07-13.67,.29l.73-.29c-3.96,.4-4.09,.5-9.62,.67-1.31-.02-1.15-.21,.59-.16-4.37-.09-3.4,.3-8.7,.22l1.97-.2c-4.5,.03-4.14,.12-6.61,.36-2.83,.15-8.53,.03-9.2-.21-.6,.16-3.06,.4-5.72,.36-.36-.09,.61-.16,1.09-.2-7.52-.1-11.18,.46-16.35,.25-.11-.09-.45-.13-.88-.16,5.97-.07,10.79-.11,10.34-.08,0-.26-4.83-.24-.99-.64-3.87,.24-10.49,.74-15.2,.68-.23-.02-.45-.04-.62-.08l.49-.03c-1.09-.01-2.06,.02-2.97,.08-1.5-.02-2.46-.04-3.9-.03-.56-.21-5.53-.05-7.94-.03,.2,.28-2.95,.27,0,.47-.38-.02,.45-.04,2.05-.07,.36-.01,.79-.02,1.03-.04-.05,0-.1,.02-.16,.03,1.58-.02,3.64-.06,5.98-.09-1.9,.17-3.88,.31-6.55,.19-1.23,.2-2.59,.4-3.35,.5-3.3-.35-9.65-.48-10.53-.71-7.35,.25-17.31,.33-21.92,.91-2.09,.09-2.4-.12-3.19-.19,1.21-.07,2.64-.08,3.29-.16-4.17,.19-12.37,.21-13.37,.59-5.27-.1,2.95-.38-4.28-.22l.98-.13c-14.24-.41-23.12,1.24-38.91,.7,1.09,.03,1.64,.05,1.86,.1-17.99-.09-37.06,.81-54.82,.54-5.05-.03-5.59,.21-8.67,.43l-1.1-.29-5.26,.42c-7.46,.36-12.94-.56-22.38,.06l1.22,.19c-3.39,.01-10.75,.28-10.19,.04-.35,.04-1.11,.23-2.44,.14l-.11-.16-8.33,.39c-6.47-.02,1-.64-8.43-.53-3.51,.11-9.98,.61-8.66,.7,1.42-.01,3.62,.04,3.73,.2l-3.21,.13c-.57,.47-3.03,.99,4.84,1.19l5.48-.37,1.77,.2-4.62,.08c2.62,.17,4.28-.04,6.14-.2,.44,.11,1.21,.19,2.3,.21l5.38-.52c.66,.17-2.41,.4,1.21,.44,2.52-.24-2.43-.37,1.75-.57,2.63,.17,1.86,.36,4.94,.13,.43,.11-.22,.2-1.44,.27,2.74-.18,7.25-.17,8.67-.44,2.74,.22,9.26-.2,8.99,.24,.86-.12,4.82-.41,7.34-.47-4.59,.59,9.43-.1,8.22,.48,3.4-.52,12.3-.39,18.32-.74-.34,.04-1,.13-1.53,.11,3.39,0,4.38,.12,6.57,.18,.43-.4,5.72-.56,8.56-.84,4.17,.32-2.52,.49-1.21,.84-.21-.31,7.22-.42,5.81-.66,3.19,.19,2.74,.08,4.39,.38,.55-.5,2.96-.12,5.6-.46,4.61,.18,1.19,.44,6.25,.23,2.41,.12-2.09,.35-2.09,.35Zm120.29-2.41h0c-1.04,.02-1.92,.04-2.48,.05,.52-.01,1.23-.03,2.48-.05Zm10.11-.13c-1.23,.01-2.76,.03-4.39,.04-.36-.09,.03-.2,1.04-.2-.55,.07,1.83,.1,3.34,.16Zm-21.41-1.69c1.6-.06,2.14-.01,2.36,.04-.76,.02-1.64,.04-2.8,.07-.05,0-.14,.03-.19,.04,.15-.06,.33-.11,.63-.15Z"/><path class="cls-2" d="M218.57,6.54c-.23,.01-.36,.02-.66,.03,.33,.02,.64,.03,.96,.05,.19-.03,.39-.07,.57-.1-.29,0-.59,.01-.86,.02Z"/><path class="cls-2" d="M1135.11,1.21h-.21c.18,0,.34,.02,.45,.03-.14-.01-.14-.02-.23-.03Z"/><polygon class="cls-2" points="382.46 6.75 382.45 6.68 381.57 6.75 382.46 6.75"/><path class="cls-2" d="M1190.8,2.47c.11,.03,.32,.05,.73,.08-.03-.02-.35-.05-.73-.08Z"/><path class="cls-2" d="M1214.85,2.69l3.4,.12c-1.47-.05-2.54-.09-3.4-.12Z"/><path class="cls-2" d="M1233.34,2.95c.23-.05,.3-.08,.36-.12-.01,0-.02,0-.04,0l-.33,.12Z"/><path class="cls-2" d="M939.28,2.6c-.25,0-.49,.01-.71,.02-1.67,.06-.54,.03,.71-.02Z"/><path class="cls-2" d="M1026.79,1.86c-.93,.04-1.84,.09-2.81,.14,1.56,.02,2.77,.02,2.81-.14Z"/><path class="cls-2" d="M841.57,3.28s0,0,.01,0c-.21,0-.39,0-.6,0h.59Z"/><path class="cls-2" d="M1019.91,2c1.56,.05,2.86,.04,4.07,0-1.28-.02-2.78-.05-4.07,0Z"/><path class="cls-2" d="M1313.49,3.97l.89,.02s.04-.03,.11-.04l-1,.02Z"/><path class="cls-2" d="M1314.49,3.95l.99-.02c-.45,0-.85,0-.99,.02Z"/><path class="cls-2" d="M1317.56,3.89l-2.08,.05c.72,0,1.61,.03,2.08-.05Z"/><path class="cls-2" d="M1289.01,3.54l-.28,.1c.15-.02,.25-.05,.28-.1Z"/><path class="cls-2" d="M1281.57,3.48c1.77,.04,4.45,.27,6.93,.24l.23-.08c-1.17,.14-5.47-.31-7.16-.16Z"/><path class="cls-2" d="M1250.53,1.84l6.23,.16c-1.09-.12-2.52-.29,.32-.28-7.86-.42,1.62,.26-6.55,.12Z"/><path class="cls-2" d="M1231.2,1.55c3.35-.03-.04-.16,.14-.22-2.13,.08-2.64,.11-.14,.22Z"/><path class="cls-2" d="M1091.5,.88l.34-.25c-2.58,.03-.02,.1-.34,.25Z"/><polygon class="cls-2" points="1064.79 2.14 1067.3 2.3 1068.5 2.07 1064.79 2.14"/><polygon class="cls-2" points="1049.01 .28 1050.14 .25 1045.83 .34 1049.01 .28"/><path class="cls-2" d="M814.37,.93l.78,.31c1.75-.07,2.11-.42-.78-.31Z"/><path class="cls-2" d="M713.08,1.83c-1.1-.15-3.95-.23-5.71-.06,2.28,0,4.55,.11,5.71,.06Z"/><polygon class="cls-2" points="409.3 3.94 411.34 3.81 407.5 3.94 409.3 3.94"/></g></svg>