<?xml version="1.0" encoding="utf-8"?>
<!-- Generator: Adobe Illustrator 24.0.3, SVG Export Plug-In . SVG Version: 6.00 Build 0)  -->
<svg version="1.1" id="Layer_1" xmlns="http://www.w3.org/2000/svg" xmlns:xlink="http://www.w3.org/1999/xlink" x="0px" y="0px"
	 viewBox="0 0 543.1 194.4" style="enable-background:new 0 0 543.1 194.4;" xml:space="preserve">
<style type="text/css">
	.st0{fill:#FFF;}
	.st1{fill:#FFF;}
</style>
<title>Asset 5</title>
<g id="Layer_2_1_">
	<g id="Layer_1-2">
		<path id="Path_3" class="st0" d="M466.5,190.5c-0.3,0.5-0.5,1.1-0.7,1.6L466.5,190.5z"/>
		<path id="Path_4" class="st0" d="M431.4,144.6c0-0.3,0-0.7,0.1-1v-0.5h-0.8l-0.2-0.1c-0.2,0-0.4,0.1-0.6,0.1h-0.5
			c-0.4,0-0.8-0.1-1.4-0.1c0,0.3,0,0.6,0,1c0-0.1,0-0.3,0.1-0.2v1c0,0.1,0,0.1,0,0.1s0,0,0-0.3v1.3c0,0.4,0,0.6,0.1,0.2
			c-0.1,0,0-0.6,0-0.9c0.1,0,0.1,0.8,0.2,1c0,0.1,0,0.1-0.1,0.2l0.1,0.1c-0.1,0.9,0,1.9-0.2,2.5c0.1,0.2,0.1,0.3,0.1,0.5H428v1
			l0.2-0.5c0,0.9-0.1,1.8-0.2,2.7c0.2,0.2-0.1,1.7,0.1,2.5l0.1-0.7c0,1.5,0.1,1.7,0,3.1c-0.1-1.2,0-1.2-0.2-2.9c0.1,1.7-0.1,3,0,4.5
			c0-0.1,0.1-0.5,0.1-0.1c-0.1,0.3,0,1.5-0.1,1.2c0,0.5,0.2,0.6,0.2,0.9L428,163V163c0.3,2.8-0.2,5.2-0.1,8l0.1-0.1l-0.1,0.7
			c0.1-0.5,0.1,0.2,0.2,0.3l-0.2,1.8c0.1,0,0.2-0.1,0.2-0.5c0,0.7,0,1.3-0.1,2l0.1-0.2l-0.1,0.6h0.1c0,0.9,0,1.7-0.1,2.6l0-0.2
			l-0.1,1.1l0.1-0.6c0,1.2-0.1,2.9-0.1,3.2l0.1-0.1c0,0.2,0,0.4,0,0.5l0.1-0.1c0,1.8,0.2,2.2,0.1,4.2c0,0.5,0-0.3,0.1-0.3
			c0.1,0.4,0.1,0.8,0,1.1c0.1-0.2,0.1-1,0.2-0.4c-0.1,0.4,0.1-0.3,0.1,0.5l-0.2,0.3c0,0.4,0.1,0.1,0.1,0.8s-0.2-1-0.2,0.3
			c0.2,0.8,0.3,1.7,0.3,2.6c0.1,1.1,0.3-0.6,0.2,0.9l0.1-0.5v2.3h0.2c0.6,0,1.1,0,1.7,0v-0.7l0,0v-1.4l0.1,0.1
			c-0.1-0.4-0.1-0.9,0-1.3c0.1,0.1,0,1,0.1,1.4c0.1-1.1,0.2-2.1,0.2-3.2l0,0.2c0-0.9,0-1.8,0.1-2.6c0,0.2,0.1,0.3,0.1,0.2
			c-0.1-1.8,0-3.5-0.1-5.5l0.1-0.6h-0.1c0-0.9,0.1-0.4,0.1-0.7c0,0,0,0.1,0,0.1c0.1-1.1-0.1-0.6-0.1-1.3c-0.1,0.3,0,1.2-0.2,0.9
			c0.1-1.1,0.1-2.9,0.3-3.1c-0.1-2.1,0.1-4.7,0.1-6.5c0-0.2,0,0.1-0.1,0c0.1-0.7-0.1-2.4,0-2.4c0-0.2-0.1-0.4-0.2-0.6
			c0.1-0.5,0.1-1,0.1-1.6v0.4l0,0l0-0.6l0,0c0-1.4,0-3.1,0.2-4.4c-0.1,0.7-0.2-0.2-0.2,0.2c0.2-1.2,0.3-2.3,0.2-3.5
			c0,0-0.1-0.1-0.1,0.1l0.1-0.7l-0.1,0.1c0-1.3,0.2-2.8,0.1-3.6c0,0.5-0.1,0.5-0.1,0.6c0-0.9,0-1.9,0.1-3c0,0.1,0,0.1,0,0.1
			c0-0.3,0-0.6,0.1-0.9l-0.1-0.1c0.1-0.6,0-1.3,0.1-2c-0.1-0.3,0.1-1.6,0.1-2.4c0-0.3-0.1,0.6-0.1-0.2c0.1-0.1,0.1-0.1,0.1-0.2
			C431.3,145,431.3,144.8,431.4,144.6z M428,149.6v-0.4C428,149.4,428.1,149.6,428,149.6L428,149.6z M428.8,147.6v-0.2l0,0v0.6
			V147.6z M428.8,183.3V183h0.2L428.8,183.3z M429,182.6l0.1-0.6C429.1,182.1,429.1,182.8,429,182.6z M429,187.4c0-0.3,0-0.6,0-0.9
			c-0.1,0.1,0,0.3,0,0.5c0-0.2,0-0.5,0-0.7c0.1,0.3,0.1,0.1,0.2,0.1C429.3,187.4,429.2,187.4,429,187.4c-0.1,0.1,0,0.2-0.1,0.2
			C429,187.6,429,187.5,429,187.4L429,187.4z M430.6,145.9c0,1.3-0.2,0.8-0.3,0.7c0.1-0.2,0.1-1.7,0.3-1.5v1.6c0,0.2,0,0.3,0,0.5
			C430.4,146.6,430.7,147,430.6,145.9L430.6,145.9z M428.8,158.3L428.8,158.3v-0.2V158.3z M429,188l0.1-0.4v0.4L429,188z
			 M429.4,193.7L429.4,193.7L429.4,193.7z M430.7,181.3c0.1-0.3,0.1-0.7,0.1-1l-0.1,0.2v-0.6c0-0.1,0.1-0.3,0.1-0.4
			c0,1.4,0,2.8-0.1,4.2V181.3z M430.7,175.6l0.1,0.1v0.3L430.7,175.6z M430.7,173.7v-1.6v-0.2C430.8,172.5,430.8,173.1,430.7,173.7z
			 M430.7,166.7c0,0.3,0,0.6,0,0.9c0,0.1,0,0.2,0,0.3V166.7z M430.7,160.2L430.7,160.2c0-0.2,0.1-0.3,0.1-0.3
			C430.8,160.4,430.7,160.1,430.7,160.2L430.7,160.2z M430.8,155.7c-0.1,0.5,0,0.4,0,0.7l-0.1-0.2c0-0.5,0.1-1,0.3-1.4
			C431.1,155.6,430.9,155.8,430.8,155.7L430.8,155.7z M428.8,144.7v0.7c-0.1,0-0.1-0.1-0.1-0.1C428.7,145.1,428.7,144.9,428.8,144.7
			z M428.4,156.2v0.1l0.1-0.6c0,0.6,0,1.2-0.1,1.7c0-0.4,0.2-1.3,0-1.1L428.4,156.2z M428,151.5c0.1-0.2,0.1-0.9,0.2-0.9
			c-0.1,0.6,0.2,1,0,1.1c0-0.1,0-0.3,0-0.4C428.2,151.4,428.1,151.8,428,151.5L428,151.5z M428.2,162.3c-0.1,0.5,0.1,0.6-0.1,1
			C428,162.9,428,162.6,428.2,162.3z M428,181c-0.1-0.6,0.1-0.5,0.1-1C428.2,180.7,428,180.6,428,181L428,181z M428.2,180.1
			c0-0.3,0-0.5,0-0.8C428.3,179.5,428.3,179.8,428.2,180.1z M428.2,164.4c0-0.3,0-1.1,0-0.8c0,0.7,0.1-0.4,0.2,0.1v-0.4
			c0.1,0.6-0.1,0.4-0.1,0.9v-0.3C428.2,163.7,428.3,164.4,428.2,164.4L428.2,164.4z M428.6,148.4c0-0.3,0-0.4,0.1-0.4
			c0-0.1,0-0.4,0-0.5C428.7,148.1,428.6,148,428.6,148.4L428.6,148.4z M428.7,149.8v0.5c0,0.1-0.1,0.1-0.1,0
			C428.7,150.2,428.7,150,428.7,149.8L428.7,149.8z M428.6,170.8c0,0.1,0.1,0,0.1-0.3v0.8C428.7,171.4,428.7,171.1,428.6,170.8z
			 M428.6,188.5v-0.3c0,0,0-0.1,0-0.1v0.5C428.6,188.7,428.6,188.6,428.6,188.5L428.6,188.5z M429.4,193.7L429.4,193.7L429.4,193.7
			C429.5,193.7,429.5,193.7,429.4,193.7z M430.6,190.8v-0.4c0,0,0-0.1,0-0.1C430.6,190.4,430.6,190.6,430.6,190.8L430.6,190.8z
			 M430.7,189.7v-0.9c0,0.4,0,0.7,0,1.1V188c0-0.1,0-0.2,0.1-0.2C430.8,188.4,430.8,189,430.7,189.7L430.7,189.7z M430.8,185.9v-0.2
			c0,0.3-0.1,0.6-0.2,0.9v-0.4l0,0c0-0.7,0-1.5,0.2-2.2c0,0.4,0,0.9-0.1,1.3c0-0.2,0-0.7,0.1-0.8C431,184.9,430.9,185.4,430.8,185.9
			L430.8,185.9z M430.9,182.2l-0.1,0.3v-0.6L430.9,182.2z M430.8,171.6c0-0.8,0-1.6-0.1-2.4c0-0.1,0-0.1,0-0.2c0,0.1,0,0.1,0,0.2
			c0,0,0.1,0,0.1,0c0,0.3,0,0.5,0,0.8c0-0.2,0.1-0.4,0.1-0.6c0.1,0.6-0.3,1.9,0.1,1.5C431,171.1,430.9,172,430.8,171.6L430.8,171.6z
			 M431,161.8c0-0.4,0-1.4,0-1.3C431,161,431,161.4,431,161.8L431,161.8z M431.1,162.1l0.1-0.3C431.2,162.1,431.2,162.1,431.1,162.1
			l0,0.3C431,161.6,431.1,162,431.1,162.1L431.1,162.1z M431,154.1l0.1,1C431,154.7,430.9,154.6,431,154.1z"/>
		<path id="Path_5" class="st0" d="M321.9,188.3c0.6-0.3,1.1-0.6,1.6-1C323,187.6,322.5,188,321.9,188.3z"/>
		<path id="Path_6" class="st0" d="M333,168.8v-1.2c0-0.6,0-1.2-0.1-1.9c0,0.1,0,0.2,0,0.2c-0.1-0.7-0.1-1.5-0.2-2.2l-0.1-0.1
			c-0.2-1.5-0.6-3-1-4.5c-0.1-0.3-0.5-1.2-0.9-2.2c-0.2-0.5-0.4-1.1-0.7-1.6c-0.2-0.5-0.5-0.9-0.8-1.4c-0.4-0.6,0.7,1.3-0.4-0.3
			c-0.1-0.5-0.4-0.9-0.7-1.2c-0.4-0.5-0.8-1-0.7-1.1c-0.4-0.4-0.8-0.9-1.2-1.2l-0.2-0.4c-0.5-0.4-1-0.8-1.5-1.3
			c-0.6-0.6-1.3-1.1-2-1.6c0.1,0.1,0.3,0.2,0.2,0.2c-0.6-0.4-2-1.3-0.9-0.7c-0.8-0.5-1.6-0.9-2.5-1.3c-0.9-0.4-1.4-0.5-0.6-0.1
			c0.7,0.3,1.4,0.6,2,1c-0.1,0.1-1.7-0.8-2.2-0.8l-0.4-0.2H318c-1.9-0.7-3.8-1.3-5.8-1.6c-0.4,0-0.8,0-1.2,0v-0.1
			c-0.8,0-1.6,0-2.4,0c0.4,0.1,0.7,0.1,1.1,0.2c-2.2-0.1-4.3,0.1-6.5,0.5c-0.5,0.3-4,1-5.6,2.2l1.5-0.7c-0.8,0.4-1.4,0.7-2,0.9
			l-1.4,0.9c-0.4,0.3-0.9,0.6-1.3,0.9c-0.3,0.3-0.7,0.5-1.1,0.8c1.5-1.4,3.3-2.6,5.1-3.5c-3.3,1.5-6.3,3.7-8.5,6.6
			c0.2-0.2,0.9-0.8,0.3-0.1c-0.6,0.4-2.1,2.9-1.9,2.3c-0.5,1-0.5,1.3-0.9,1.9s-0.6,1.1-0.9,1.7c-0.3,0.6-0.6,1.2-0.8,1.8l0.1-0.1
			c-0.9,3-1.4,6.2-1.5,9.3c-0.1,3.2,0.3,6.4,1.4,9.4V178c0.1,0.4,0.2,0.8,0.3,1.2c0-0.1,0.5,0.9,0.5,1c0.5,1.3,1.1,2.6,1.9,3.9
			c0.1,0,0.1-0.2-0.5-1.1c0.4,0.7,0.9,1.4,1.3,2c0.4,0.6,0.9,1.3,1.4,1.8l-0.3-0.4l0.9,1.1l0.1-0.1c1.5,1.4,3,2.7,4.8,3.9l-0.2-0.3
			l1,0.7c0.4,0.2,0.7,0.4,1.1,0.6c-0.4-0.2-0.8-0.5-1.2-0.7c0.6,0.4,1.3,0.6,2,1s1.5,0.6,2.2,0.9c1.4,0.5,2.6,0.7,2.9,0.8l-0.2-0.1
			l1.3,0.2l-0.4-0.1c1.6,0.3,3.2,0.4,4.8,0.3c1.7-0.1,3.4-0.2,5.1-0.5c1.2-0.2-0.7,0.1-0.7,0c0.7-0.2,2.3-0.4,2.6-0.5
			c-0.4,0-2.3,0.4-0.9,0c1-0.2-0.7,0.1,1.1-0.4h0.8c1-0.4,0.2-0.2,1.7-0.7c1.8-0.6-2.1,1,0.8-0.1c1.8-0.9,3.5-2,5.1-3.2
			c1.9-1.6-1.1,0.6,1.5-1.5c-0.3,0.2-0.6,0.4-0.9,0.6c0.5-0.4,1-0.8,1.4-1.2c0.2-0.2,0.4-0.4,0.6-0.6l-0.5,0.4
			c0.3-0.3,0.6-0.5,0.8-0.8l-1.3-1.3l0,0h0c-0.2,0.2-0.4,0.4-0.5,0.6l0,0l-0.2,0.2l-1,0.9l-0.7,0.6l-0.1,0.1
			c-0.4,0.3-0.8,0.6-1.1,0.8c-1.2,0.8-2.5,1.5-3.8,2.1l0.1-0.1c-0.3,0.1-0.5,0.3-0.8,0.4c-0.5,0.2-0.9,0.3-1.4,0.5
			c-0.2,0.1-0.5,0.1-0.7,0.2c0.2-0.2,2.1-0.7,3-1.1c-1.2,0.5-2.5,0.9-3.7,1.1c-0.9,0.2-1.7,0.3-3.4,0.6h0.6c-2,0.3-4,0.3-6,0.1
			c0.5,0,0.6-0.1,0.4-0.1c-2-0.1-4-0.5-5.9-1.2c-1-0.4-1.9-0.8-2.9-1.2c-1-0.5-1.9-1.1-2.8-1.8c-0.4-0.3-0.7-0.6-1-1h-0.1
			c-1.6-1.5-0.3-0.4-1.3-1.4c0.1,0.1,0.2,0.3,0.3,0.4c-0.4-0.5-0.8-1-1.2-1.4c-0.3-0.2-0.5-0.5-0.7-0.8c0.2,0.7,1.8,2.2,1.2,1.8
			c-0.9-1.1-1.8-2.3-2.5-3.6c-0.5-0.7-0.8-1.6-1-2.5c-1-2.3-1.7-4.8-1.9-7.4c0-0.3,0-0.6,0-1v-0.8v-0.3h0.6h3.4
			c0.6-0.1-0.4,0-0.1-0.1c1.6,0.1,5.4-0.1,5.5,0c0.4,0,0.9-0.1,1.3-0.2c1,0.1,2.3,0.1,3.6,0.1h-1h0.1l1.4,0.1h0
			c3.3,0,7.1,0,10.1,0.2c-1.5-0.1,0-0.2-0.2-0.2c1.6,0.2,5.1,0.2,8,0.2c0,0,0.2-0.1-0.1-0.1l1.7,0.1l-0.2-0.1c3.1,0,6.4,0.2,8.4,0.1
			c-1.2,0-1.3-0.1-1.4-0.1h4.2c0,0,0.1,0,0.1,0L333,168.8L333,168.8z M315.5,192.6c2-0.6,1.9-0.4,2.1-0.4s0.5-0.1,0.5,0
			c-0.2,0-0.3,0-0.5,0c-0.5,0.1-1.2,0.3-2,0.5c0.4,0,0.8-0.1,1.1-0.2c-0.5,0.2-1,0.3-1.5,0.4C315.9,192.6,315.4,192.8,315.5,192.6
			L315.5,192.6z M318,191.9c0.3-0.1,0.6-0.2,0.8-0.3v0.2C318.6,191.9,318.3,191.9,318,191.9L318,191.9z M313.9,144.3
			c0.2,0,0.5,0.1,0.7,0.1c0.3,0.1,0.6,0.1,0.9,0.2l0.2,0.1h-0.1C315,144.5,314.5,144.4,313.9,144.3L313.9,144.3z M329.8,156.4
			c0.1,0.2,0.2,0.4,0.2,0.6l0.3,0.7l0.1,0.2c-0.9-1.3-0.1-0.6-1.4-2.8c0.4,0.6,0.7,1.2,0.8,1.8c0,0.1-0.2-0.2-0.3-0.2
			c-0.3-0.7-0.6-1.4-1-2.1c-0.4-0.7-0.7-1.2-0.5-1.1C328.7,154.5,329.3,155.4,329.8,156.4L329.8,156.4z M287.6,164.4
			c0-0.1,0-0.1,0-0.2v-0.1l0,0c0.1-0.5,0.2-1,0.3-1.4v0.1c0-0.5,0.2-0.9,0.4-1.4c0.1,0.1-0.3,1-0.3,1.4c0.1-0.6,0.3-1.2,0.6-1.7
			c0.2-0.4,0.3-0.8,0.5-1.5l-0.1,0.2c0.1-0.5,0.3-0.9,0.5-1.3c0.2-0.4,0.5-0.8,0.7-1.2c-0.1,0.2,0,0.3,0,0.2
			c0.8-1.7,1.9-3.3,3.2-4.8l0.5-0.4l0-0.1c0.7-0.8,0.2-0.1,0.7-0.5c-0.2,0.2-0.2,0.1-0.2,0.1c1-0.7,0.4-0.5,1-0.9
			c-0.3,0.1-1,0.8-0.9,0.5c1-0.7,2.4-1.8,2.7-1.7c1.9-1.3,4-2.1,6.2-2.6c0.2-0.1-0.2,0-0.1-0.1c0.5,0,1-0.2,1.5-0.3
			c0.3-0.1,0.7-0.2,1-0.1c0.2,0,0.4-0.1,0.6-0.3c0.5,0,1,0,1.6,0h-0.4l0,0h0.6l0,0h1.1l1.2,0.1c0.7,0,1.5,0.1,2.2,0.3
			c-0.8-0.2,0.2-0.1-0.1-0.2c0.6,0.3,2.2,0.6,3.5,1c0-0.1,0.1-0.1,0-0.1l0.7,0.3l-0.1-0.1c0.7,0.2,1.3,0.5,1.9,0.8
			c0.6,0.3,1.1,0.6,1.5,0.8c-0.5-0.3-0.4-0.4-0.5-0.4l1.3,0.8c0.4,0.3,0.8,0.6,1.2,1c0-0.1-0.1-0.1,0-0.1c0.3,0.2,0.5,0.4,0.7,0.7
			l0.1-0.1c1.1,1,2.1,2.2,2.9,3.4c0.2,0.3-0.3-0.6,0.2,0.1c-0.1,0.2,0.6,0.9,0.4,1.1l0.5,0.6v0.2c0.5,0.4,0.3,0.9,0.8,1.7
			c0-0.1,0-0.1,0-0.1c0.1,0.3,0.4,0.9,0.1,0.5c0.2,0.5,0.7,2.1,0.6,1.3c0,0.1-0.2-0.6-0.3-0.9c0.1,0,0.3,0.7,0.5,0.9
			c0,0,0,0.1,0,0.2l0.1,0.1c0.2,0.8,0.4,1.7,0.5,2.6c0.1,0.2,0.1,0.3,0.1,0.5H329l0.2,1l0.1-0.5c0.1,0.5,0.2,1,0.1,1.5v0.3
			c0,0.1,0,0.2,0,0.2h0c0,0,0.1,0.1,0.1,0.1c0,0-0.1,0-0.1,0c-0.2,0-0.4,0-0.6,0c-0.2,0-0.5,0-0.7,0.1l0.7,0.1c-1.6,0-1.8,0.1-3.3,0
			c1.2-0.1,1.2,0,3.1-0.2c-1.8,0.1-3.1-0.1-4.8,0c0.1,0.1,0.5,0.1,0.1,0.1c-0.3-0.1-1.6,0-1.3-0.1c-0.5,0-0.6,0.2-0.9,0.2l-1.7-0.2
			l0,0c-3,0.3-5.5-0.2-8.5-0.1l0.1,0.1l-0.7-0.1c0.6,0.1-0.3,0.1-0.3,0.2l-1.9-0.2c0,0.1,0.1,0.2,0.5,0.2c-0.7,0-1.4,0-2.1-0.1
			l0.2,0.1l-0.6-0.1v0.1c-0.9,0-1.8,0-2.7-0.1l0.1,0.1l-1-0.1l0.6,0.1c-1.2,0-3.1-0.1-3.4-0.1l0.1,0.1c-0.2,0-0.4,0-0.6,0l0.2,0.1
			c-1.9,0-2.4,0.2-4.5,0.1c-0.6,0,0.3,0,0.3,0.1c-0.4,0.1-0.8,0.1-1.2,0c0.2,0.1,1,0.1,0.4,0.2c-0.5-0.1,0.3,0.1-0.5,0.1l-0.3-0.2
			c-0.5,0-0.1,0.1-0.8,0.1s1-0.2-0.3-0.2c-0.9,0.2-1.8,0.3-2.8,0.3c-1.1,0.1,0.6,0.3-1,0.2l0.5,0.1h-2.4c0-0.1,0-0.2,0-0.2
			C287.4,166.1,287.5,165,287.6,164.4L287.6,164.4z M289.1,159c0-0.1,0.1-0.1,0.2-0.1c-0.2,0.3-0.5,1.5-0.7,1.8
			c0.1-0.3,0.2-0.6,0.3-0.9c-0.2,0.3-0.3,0.7-0.4,1.1C288.7,160.2,288.9,159.6,289.1,159z M290,157.1L290,157.1
			c0.4-0.7,0.8-1.4,1.4-1.9c-0.2,0.5-0.8,0.9-0.8,1.1c0.2-0.2,0.5-0.6,0.5-0.6c-0.2,0.4-0.5,0.9-0.8,1.3l0.1-0.2
			c-0.2,0.3-0.4,0.5-0.6,0.8L290,157.1L290,157.1z M288.3,161.3c0,0,0.1-0.1,0.1-0.1l-0.2,0.6C288.2,161.6,288.2,161.4,288.3,161.3
			L288.3,161.3z M292.2,154l0.4-0.5l-0.1,0.3L292.2,154z M297.5,149.1l-0.1,0.1c-0.1,0.1-0.2,0.1-0.3,0.2
			C297.2,149.3,297.4,149.2,297.5,149.1L297.5,149.1z M327.1,166.5l0.2,0.1L327.1,166.5l0.6,0.1c-0.6,0-1.2,0-1.8-0.1
			C326.3,166.5,327.3,166.7,327.1,166.5L327.1,166.5z M329.4,161c0.2,0.6,0.1,0.6,0.1,1c-0.1-0.3-0.1-0.4,0-0.4
			C329.6,161.5,329.4,161.2,329.4,161L329.4,161z M329.3,163.3l-0.1-0.4C329.3,163.1,329.4,163.3,329.3,163.3z M328.8,158.9
			c0,0-0.1,0-0.2-0.1c0-0.3-0.1-0.5-0.2-0.7C328.6,158.3,328.7,158.6,328.8,158.9L328.8,158.9z M329.5,160.9L329.5,160.9l0.1,0.6
			c0-0.2-0.1-0.3-0.1-0.5L329.5,160.9z M330.1,163.9c0,0.1,0,0.1-0.1,0c0.1-0.2,0.1-0.4,0-0.5C330,163.6,330.1,163.8,330.1,163.9
			L330.1,163.9z M329.6,164.3c0,0.6,0.3,1,0.1,1.2c0-0.2,0-0.3,0-0.5c0,0.1-0.1,0.5-0.1,0.2S329.6,164.3,329.6,164.3L329.6,164.3z
			 M327.7,156.5l-0.1-0.1L327.7,156.5z M326.4,154.4c-0.3-0.5-0.7-1-1.1-1.4c-0.1-0.1-0.2-0.3-0.3-0.4c0.7,0.4,0.2,0.2,1,1.1
			c-0.8-1.1-0.4-0.8-0.2-0.8C325.9,153.2,326.8,154.5,326.4,154.4L326.4,154.4z M317.1,147.4l0.2-0.1c0.5,0.2,0.9,0.5,1.3,0.9
			c-0.8-0.3-0.9-0.6-0.8-0.6C317.3,147.3,317.4,147.5,317.1,147.4L317.1,147.4z M319.2,148.6l-1-0.4
			C318.6,148.3,318.8,148.2,319.2,148.6z M313.3,146.2c0.2,0.1,0.3,0.1,0.3,0.1C313.1,146.2,313.3,146.2,313.3,146.2L313.3,146.2z
			 M311,146.4c0.8,0,0.4,0,0.3,0.1c0.1,0,0.2,0,0.3,0.1c-0.3,0-0.4-0.1-0.3-0.1L311,146.4z M311.5,146.3l1.3,0.2
			C312.4,146.5,311.9,146.4,311.5,146.3L311.5,146.3z M306.4,146c-0.3,0.1-0.6,0.1-0.9,0.2h-0.3C305.6,146.1,306,146.1,306.4,146
			L306.4,146z M301.3,147.4c0.7-0.2,1.9-0.7,2.5-0.8c0.1,0,0.1-0.1,0.2-0.1l-0.2,0.1c0,0,0,0.1,0.1,0.1c-0.3,0-0.6,0.1-0.8,0.2
			c0.2,0,0.5,0,0.7-0.1c-0.6,0.2-2,0.3-1.5,0.6C301.9,147.3,301,147.5,301.3,147.4z M311,166.8c0.2,0,0.4-0.1,0.6-0.1
			c-0.1,0,0,0.1,0.3,0.1H311z M299.8,167.2c-0.2,0-0.8,0-0.6-0.1L299.8,167.2z M298.7,167l-0.3-0.2h0.3L298.7,167z M295,167.3
			c-1,0.1-0.9-0.1-1-0.2s-0.2-0.1-0.2-0.1c0.1,0,0.2,0,0.2,0.1c0.3,0,0.6,0,1,0c-0.1-0.1-0.3,0-0.5,0c0.2,0,0.5,0,0.7,0
			C294.7,167.2,295,167.2,295,167.3L295,167.3z M293.7,167.3h-0.4v-0.2L293.7,167.3z M292.7,166.9c0,0,0,0,0.1-0.1h0.3
			c0.1,0,0.1,0,0.1,0L292.7,166.9z M300.8,166.1c0.6-0.1,0.5,0.1,1.1,0.1C301.1,166.3,301.2,166.2,300.8,166.1z M302.6,166.3
			c-0.3,0-0.6,0-0.8,0C302.1,166.3,302.3,166.3,302.6,166.3z M319.2,166.5h0.4c-0.7,0.1-0.5-0.1-0.9-0.1h0.3
			c0.2-0.1-0.5-0.1-0.5-0.1c0.4,0,1.2,0,0.9,0C318.5,166.4,319.7,166.5,319.2,166.5L319.2,166.5z M319.7,166.2
			c0.4-0.1,0.7-0.1,1.1,0.1C320.3,166.2,320.1,166.4,319.7,166.2z M324.9,166.8L324.9,166.8h0.2H324.9z M300.7,147.4
			c0.1,0,0.2-0.1,0.3-0.1c-0.4,0.3-0.8,0.5-1.3,0.6c-0.2,0-0.4,0.1-0.6,0.2C299.6,147.8,300.2,147.6,300.7,147.4z M292.9,152.9
			c0.3-0.2,0.6-0.4,0.8-0.7l-0.2,0.1c0.2-0.2,0.3-0.3,0.5-0.5c0.1-0.1,0.2-0.1,0.4-0.2c-1.2,1.1-2.2,2.4-3.2,3.7
			C291.6,154.4,292.2,153.6,292.9,152.9z M297.2,147.1l-0.3,0.1L297.2,147.1z M306.6,193.3l-1.4-0.3
			C305.5,193,307,193.3,306.6,193.3z M307.5,193.4l0.7,0.2l-0.7-0.1L307.5,193.4z M288,175.5c0,0.2,0.1,0.4,0.1,0.6
			C288.1,175.9,288.1,175.7,288,175.5z M287.2,169.9v-0.6c0.1,1,0.2,2.8,0.4,4.5C287.4,172.5,287.2,171.2,287.2,169.9L287.2,169.9z
			 M287.2,168.8L287.2,168.8L287.2,168.8z M320.3,146.4c0.4,0.2,0.8,0.6,1.2,0.9c-0.5-0.3-1-0.6-1.5-0.9
			C320.2,146.4,320.2,146.4,320.3,146.4L320.3,146.4z M313.5,144.1c0.7,0.1,0.9,0.1,0.8,0.2c0.3,0.1,0.9,0.2,1.2,0.3
			C314.2,144.3,314.3,144.2,313.5,144.1l-0.6-0.1C313.2,144,313.4,144,313.5,144.1L313.5,144.1z M311.7,143.3c-0.3,0-0.7,0-1-0.1
			L311.7,143.3z M309,143.8c0.4,0.1,0.7,0.1,1.1,0.1c-0.3,0-0.5,0-0.8,0H309C308.8,143.9,308.8,143.8,309,143.8L309,143.8z
			 M306.3,143.3c0.7-0.1,1.4-0.1,2.1,0c-0.6,0-1.2,0-1.8,0.1c-0.3,0.1-0.6,0.1-0.9,0.1l1-0.1C306.5,143.3,305.6,143.4,306.3,143.3
			L306.3,143.3z M295.7,147.4l0.4-0.1L295.7,147.4l1.3-0.6l-3.4,2.2C294.3,148.5,296.2,147.4,295.7,147.4L295.7,147.4z M292.6,150.4
			l-0.3,0.2h-0.1C292.4,150.5,292.5,150.4,292.6,150.4L292.6,150.4z M286.8,157.9c-0.5,1-0.4,1.5-0.9,2.2
			C286,159.3,286.4,158.6,286.8,157.9L286.8,157.9z M285.8,160.9c-0.4,1.7,0.3-0.8,0.1,0.4c0.1-0.3,0.2-0.6,0.3-0.9
			c-0.4,1.4-0.4,1-0.6,2l0.1-0.7c0-0.6-0.3,1-0.4,1.1C285.4,162.2,285.6,161.5,285.8,160.9L285.8,160.9z M285,168.5
			c0,0.2,0,0.4,0,0.6C285,168.9,285,168.7,285,168.5z M286.5,177.5c0.1,0.3,0-0.1-0.1-0.6c0.2,0.6,0.4,1.2,0.6,1.8
			C286.9,178.4,286.7,178,286.5,177.5L286.5,177.5z M299,192.2c1,0.4,1.1,0.4,1.7,0.6C300.1,192.7,299.5,192.4,299,192.2L299,192.2z
			 M300.5,192.8c1.7,0.5,1.3,0.6,2.3,0.8C302,193.5,301.2,193.2,300.5,192.8L300.5,192.8z M320,191.8l-0.6,0.2c-0.2,0.1-0.2,0-0.2,0
			c0.4-0.1,0.7-0.3,1.1-0.4C320.4,191.6,320.3,191.6,320,191.8L320,191.8z M326.6,185.1L326.6,185.1z M326.4,185.1L326.4,185.1
			L326.4,185.1L326.4,185.1L326.4,185.1z M317.2,190.7l-0.7,0.2h-0.3L317.2,190.7L317.2,190.7z M315,191.2c-0.7,0.2-1.3,0.2-2,0.4
			C313.7,191.5,314.4,191.4,315,191.2c-1.3,0.3-2.6,0.5-3.9,0.6c-0.1,0-0.3,0-0.3-0.1C311.7,191.7,314.2,191.2,315,191.2L315,191.2z
			 M303.1,190.7c0.7,0.1,1.2,0.3,1.8,0.4s1,0.2,1.5,0.3h-0.5c1.2,0.2,1.7,0.3,2.1,0.4c-0.4,0-0.7,0-1-0.1h0.1
			c-1.7-0.2-3.4-0.6-5-1.2c1.1,0.3,2.5,0.8,2.8,0.8C304.2,191.2,303.6,191,303.1,190.7L303.1,190.7z M298.4,188.9
			c0.2,0.2,0.4,0.3,0.6,0.4c-0.4-0.2-0.8-0.4-1.2-0.7L298.4,188.9z M299.5,189.6c1,0.5,2.1,0.9,3.2,1.3c-2.1-0.6-4.2-1.6-6-2.8
			c-0.1-0.1-0.2-0.1-0.3-0.2l0,0c-0.2-0.1-0.3-0.3-0.5-0.4c-0.3-0.3-0.8-0.6-1.2-1c0.1,0.1,0.2,0.3,0.3,0.4c-0.4-0.3-0.8-0.7-1.1-1
			l-0.6-0.7C295.1,187,297.2,188.5,299.5,189.6L299.5,189.6z M288.8,177.6l0.1,0.3c0.1,0.2,0.2,0.5,0.3,0.7
			C289,178.3,288.9,178,288.8,177.6L288.8,177.6z M288.7,176.3l-0.2-0.7C288.6,175.9,288.6,176.1,288.7,176.3L288.7,176.3z
			 M293,168.9c-0.6,0-1.2,0-1.9,0c0.2,0.1,1.1,0,1.5,0.1c-1.4,0.1-4.4-0.3-3.5,0.1c-0.3,0-1-0.1-1.3-0.1s-0.4-0.1-0.4,0
			s-0.1,0,0-0.1c0.6,0,1.8,0,2.8,0S292.3,168.9,293,168.9c0.1-0.1,0.3-0.1,0.4-0.1L293,168.9C292.8,168.8,292.9,168.9,293,168.9
			c0.2,0,0.4,0,0.5,0C293.3,168.9,293.2,168.9,293,168.9L293,168.9z M296.8,168.8l-0.5-0.1h2.5C298.3,168.8,297.1,168.8,296.8,168.8
			L296.8,168.8z M309.4,169.3l-0.6-0.1C310.4,169.2,309.6,169.2,309.4,169.3h0.8C309.4,169.3,309.3,169.3,309.4,169.3z M309.9,169.1
			h3C311.9,169.2,310.9,169.2,309.9,169.1L309.9,169.1z M314.4,168.9c-1.1,0-0.5-0.1-0.7-0.1h0.1
			C314.2,168.8,314.5,168.8,314.4,168.9L314.4,168.9z M324.2,168.9c-0.6-0.1-1.1-0.1-1.7,0l0.4-0.1c1.1,0,2.2,0.1,3.4,0.3
			C324.4,169.1,323.9,168.9,324.2,168.9L324.2,168.9z M325.5,169.2c-0.2,0-0.4,0-0.8,0H325.5c0.8-0.2,1.5-0.2,2.3-0.1L325.5,169.2z"
			/>
		<path id="Path_7" class="st0" d="M380,188.8c0-0.6,0-1.3,0-1.9V188.8z"/>
		<path id="Path_8" class="st0" d="M322.5,188.2l0-0.1c-0.3,0.2-0.6,0.4-1,0.6C321.9,188.5,322.2,188.4,322.5,188.2z"/>
		<path id="Path_9" class="st0" d="M466.7,182.6l0.1-0.2c0-0.1,0-0.1,0-0.1L466.7,182.6z"/>
		<path id="Path_10" class="st0" d="M215.6,188.9c-0.1,0-0.1,0-0.4-0.3C215.4,188.7,215.5,188.8,215.6,188.9z"/>
		<path id="Path_11" class="st0" d="M240.7,192.4l0.7-0.3L240.7,192.4z"/>
		<path id="Path_12" class="st0" d="M208.5,159.2L208.5,159.2l-0.1,0.4L208.5,159.2z"/>
		<path id="Path_13" class="st0" d="M244.9,138.6c0.3,0,0.7,0,1,0.1C245.5,138.7,245.2,138.6,244.9,138.6z"/>
		<path id="Path_14" class="st0" d="M244.3,190.5l-0.4,0.2C243.7,190.8,243.9,190.7,244.3,190.5z"/>
		<path id="Path_15" class="st0" d="M469,176.9c-0.1,0.3-0.3,0.6-0.4,0.9L469,176.9z"/>
		<path id="Path_16" class="st0" d="M248.6,142.7c0.2,0,0.5,0,0.7,0.1C249.4,142.9,249.1,142.8,248.6,142.7z"/>
		<path id="Path_17" class="st0" d="M243.8,150.2l0.1,0.1C243.6,150.1,243.7,150.1,243.8,150.2z"/>
		<path id="Path_18" class="st0" d="M244.5,190.7c0.3-0.2,0.6-0.4,0.9-0.6C245.1,190.3,244.8,190.5,244.5,190.7z"/>
		<path id="Path_19" class="st0" d="M466.1,191v0.1l0.4-1L466.1,191z"/>
		<path id="Path_20" class="st0" d="M395.3,148.7L395.3,148.7l-0.1,0.7L395.3,148.7z"/>
		<path id="Path_21" class="st0" d="M244.3,190.6c-0.3,0.2-0.6,0.4-1,0.5c0.3-0.2,0.6-0.4,0.8-0.5H244.3z"/>
		<path id="Path_22" class="st0" d="M250.9,139.9l0.3,0.1h-0.2C250.9,140,250.8,139.9,250.9,139.9z"/>
		<path id="Path_23" class="st0" d="M244.5,190.7l-0.6,0.4C244.1,191,244.2,190.8,244.5,190.7z"/>
		<path id="Path_24" class="st0" d="M395.1,147.8l-0.1,1.3C395.1,148.7,395.2,148.3,395.1,147.8z"/>
		<path id="Path_25" class="st0" d="M398.2,179.9c0,0.2-0.1,0.3-0.1,0.5C398.2,180.5,398.2,180.3,398.2,179.9z"/>
		<path id="Path_26" class="st0" d="M394.9,170.4L394.9,170.4z"/>
		<path id="Path_27" class="st0" d="M398.4,184.5l0.1,0.1C398.4,184.3,398.4,184.3,398.4,184.5z"/>
		<path id="Path_28" class="st0" d="M399.5,192.4L399.5,192.4c-0.1-0.1-0.2-0.1-0.3-0.2C399.3,192.3,399.4,192.4,399.5,192.4z"/>
		<path id="Path_29" class="st0" d="M459.2,177.7c0,0.2,0.1,0.5,0.2,0.7C459.4,178.5,459.4,178.3,459.2,177.7z"/>
		<path id="Path_30" class="st0" d="M411.5,189.9c-0.2,0.1-0.4,0.1-0.6,0.2L411.5,189.9z"/>
		<path id="Path_31" class="st0" d="M407.2,191.1h0.2c0,0,0.1-0.1,0.1-0.1L407.2,191.1z"/>
		<path id="Path_32" class="st0" d="M527.5,181.1l0-0.1c-0.3,0.2-0.6,0.4-1,0.6C526.9,181.4,527.2,181.3,527.5,181.1z"/>
		<path id="Path_33" class="st0" d="M380.2,188.1v1.1l0-1L380.2,188.1z"/>
		<path id="Path_34" class="st0" d="M537.8,168.7v-0.3v-1.2c0-0.6,0-1.2-0.1-1.9c0,0.1,0,0.2,0,0.2c-0.1-0.7-0.2-1.5-0.2-2.2
			l-0.1-0.1c-0.2-1.5-0.6-3-1-4.4c-0.1-0.3-0.5-1.2-0.8-2.2c-0.2-0.5-0.4-1.1-0.7-1.6c-0.2-0.5-0.5-0.9-0.8-1.4
			c-0.4-0.6,0.7,1.3-0.3-0.3c-0.1-0.4-0.4-0.9-0.7-1.2c-0.4-0.5-0.8-0.9-0.7-1.1c-0.4-0.4-0.8-0.8-1.2-1.2l-0.2-0.4
			c-0.5-0.4-1-0.8-1.5-1.3c-0.6-0.6-1.3-1.1-2-1.5c0.1,0.1,0.3,0.2,0.2,0.2c-0.6-0.4-2-1.3-0.8-0.7c-0.8-0.5-1.6-0.9-2.5-1.3
			c-0.8-0.4-1.4-0.5-0.6-0.1c0.7,0.3,1.4,0.6,2,1c-0.2,0.1-1.7-0.8-2.1-0.8l-0.4-0.2H523c-1.8-0.7-3.8-1.2-5.7-1.5
			c-0.4,0-0.8,0-1.2,0v-0.1c-0.8,0-1.5,0-2.3,0c0.4,0,0.7,0.1,1.1,0.2c-2.1-0.1-4.3,0.1-6.4,0.5c-0.5,0.3-4,1-5.5,2.1l1.5-0.6
			c-0.8,0.4-1.4,0.7-1.9,0.9l-1.3,0.8c-0.4,0.3-0.9,0.6-1.2,0.9c-0.3,0.3-0.7,0.5-1.1,0.8c1.5-1.4,3.2-2.5,5-3.4
			c-3.3,1.5-6.2,3.7-8.4,6.5c0.2-0.2,0.8-0.8,0.3-0.1c-0.6,0.4-2,2.8-1.9,2.3c-0.5,1-0.5,1.3-0.9,1.9s-0.6,1.1-0.9,1.7
			c-0.3,0.6-0.6,1.2-0.8,1.8l0.1-0.1c-0.9,3-1.4,6.1-1.5,9.2c-0.1,3.1,0.3,6.2,1.4,9.2v-0.1c0.1,0.4,0.2,0.8,0.3,1.2
			c0-0.1,0.5,0.9,0.5,1c0.5,1.3,1.1,2.6,1.8,3.8c0.1,0,0.1-0.2-0.5-1.1c0.4,0.7,0.9,1.4,1.3,2c0.4,0.6,0.9,1.2,1.4,1.8l-0.3-0.4
			l0.9,1.1l0.1-0.1c1.4,1.4,3,2.7,4.7,3.8l-0.2-0.3l1,0.7c0.4,0.2,0.7,0.4,1.1,0.6c-0.4-0.2-0.8-0.5-1.2-0.7c0.6,0.3,1.3,0.6,2,1
			s1.5,0.6,2.2,0.9c1.4,0.5,2.5,0.7,2.8,0.8l-0.2-0.1l1.2,0.2l-0.3-0.1c1.6,0.3,3.1,0.4,4.7,0.3c1.7-0.1,3.3-0.2,5-0.5
			c1.2-0.2-0.7,0.1-0.7,0.1c0.7-0.2,2.2-0.4,2.6-0.5c-0.4,0-2.2,0.4-0.8,0c1-0.2-0.7,0.1,1.1-0.4h0.7c0.5-0.3,1.1-0.5,1.7-0.7
			c1.7-0.6-2,1,0.7-0.1c1.8-0.9,3.5-2,5.1-3.2c1.9-1.6-1.1,0.6,1.5-1.5c-0.3,0.2-0.6,0.4-0.8,0.6c0.5-0.4,0.9-0.8,1.4-1.2
			c0.2-0.2,0.4-0.4,0.6-0.6l-0.5,0.4c0.3-0.3,0.6-0.5,0.8-0.8l-1.2-1.4l0,0l0,0c-0.2,0.2-0.4,0.4-0.5,0.5l0,0l-0.2,0.2
			c-0.3,0.3-0.6,0.6-1,0.9s-0.4,0.4-0.7,0.6l-0.1,0.1c-0.4,0.3-0.8,0.6-1.1,0.8c-1.2,0.8-2.4,1.5-3.7,2l0.1-0.1
			c-0.3,0.1-0.5,0.3-0.8,0.4c-0.4,0.2-0.9,0.3-1.3,0.5c-0.2,0.1-0.5,0.1-0.7,0.2c0.2-0.1,2.1-0.7,2.9-1.1c-1.2,0.5-2.4,0.8-3.7,1.1
			c-0.9,0.1-1.7,0.3-3.3,0.6h0.5c-2,0.3-4,0.3-5.9,0.1c0.5,0,0.6-0.1,0.4-0.1c-2-0.1-3.9-0.5-5.8-1.1c-1-0.3-1.9-0.8-2.8-1.2
			c-0.9-0.5-1.9-1.1-2.7-1.8c-0.3-0.3-0.7-0.6-1-1h-0.1c-1.6-1.5-0.3-0.4-1.2-1.4c0.4,0.4,0.3,0.3,0.3,0.4c-0.4-0.5-0.8-1-1.2-1.4
			c-0.3-0.2-0.5-0.5-0.7-0.8c0.2,0.7,1.8,2.1,1.2,1.8c-0.9-1.1-1.7-2.3-2.4-3.5c-0.5-0.7-0.8-1.6-1-2.4c-1-2.3-1.6-4.7-1.8-7.2
			c0-0.3,0-0.6,0-0.9v-0.8v-0.3h0.6h3.3c0.5,0-0.3,0-0.1-0.1c1.6,0.1,5.4-0.1,5.4,0c0.4,0,0.9-0.1,1.3-0.2c1,0.1,2.2,0.1,3.5,0.1h-1
			h0.1l1.4,0.1l0,0c3.2,0,7,0,9.9,0.2c-1.5-0.1,0-0.2-0.2-0.2c2.6,0.2,5.2,0.3,7.8,0.2c0,0,0.2-0.1-0.1-0.1l1.7,0.1l-0.2-0.1
			c3,0,6.3,0.2,8.3,0.1c-1.2,0-1.2-0.1-1.4-0.1h3.5h0.7c0,0,0.1,0,0.1,0L537.8,168.7z M520.5,191.8c1.9-0.5,1.9-0.4,2.1-0.4
			s0.4-0.1,0.5-0.1c-0.1,0.1-0.3,0.1-0.5,0.1c-0.5,0.1-1.2,0.3-1.9,0.5c0.4,0,0.7-0.1,1.1-0.2c-0.5,0.2-1,0.3-1.5,0.4
			C521,191.8,520.5,191.9,520.5,191.8z M523.1,191.1c0.3-0.1,0.6-0.2,0.8-0.3v0.2C523.7,191.1,523.4,191.1,523.1,191.1L523.1,191.1z
			 M519,144.3c0.2,0,0.5,0.1,0.7,0.1l0.8,0.2l0.2,0.1h-0.1C520.1,144.5,519.6,144.3,519,144.3L519,144.3z M534.7,156.3
			c0.1,0.2,0.2,0.4,0.2,0.6s0.2,0.4,0.3,0.6l0.1,0.2c-0.8-1.3-0.1-0.6-1.4-2.8c0.7,1.3,0.9,1.7,0.8,1.8s-0.2-0.2-0.3-0.2
			c-0.3-0.7-0.6-1.4-0.9-2.1c-0.4-0.7-0.7-1.2-0.5-1C533.6,154.4,534.2,155.3,534.7,156.3L534.7,156.3z M493.1,164
			c0-0.1,0-0.1,0-0.2v-0.1l0,0c0.1-0.5,0.2-0.9,0.3-1.4v0.1c0-0.5,0.2-0.9,0.4-1.3c0.1,0.1-0.3,1-0.3,1.4c0.2-0.6,0.4-1.1,0.6-1.7
			c0.2-0.4,0.3-0.7,0.5-1.4l-0.1,0.2c0.1-0.5,0.3-0.9,0.5-1.3c0.2-0.4,0.5-0.8,0.7-1.1c-0.1,0.2,0,0.3,0,0.2
			c0.8-1.7,1.8-3.3,3.1-4.7l0.5-0.4v-0.1c0.7-0.8,0.2-0.1,0.7-0.5c-0.2,0.2-0.2,0.1-0.2,0.1c1-0.7,0.4-0.5,0.9-0.9
			c-0.3,0.1-1,0.8-0.9,0.5c0.9-0.7,2.4-1.8,2.7-1.7c1.8-1.2,3.9-2.1,6-2.6c0.2-0.1-0.2,0-0.1-0.1c0.5,0,1-0.2,1.4-0.3
			c0.3-0.1,0.6-0.2,0.9-0.1c0.2,0,0.4-0.1,0.6-0.3c0.5,0,1,0,1.6,0h-0.4l0,0h0.6l0,0h1.1l1.2,0.1c0.7,0,1.4,0.1,2.2,0.3
			c-0.7-0.2,0.2-0.1-0.1-0.2c0.7,0.3,2.2,0.6,3.5,1c0,0,0.1,0,0-0.1l0.7,0.3l-0.1-0.1c0.6,0.2,1.3,0.5,1.8,0.8
			c0.6,0.3,1,0.6,1.5,0.8c-0.5-0.3-0.4-0.4-0.5-0.4l1.2,0.8c0.4,0.3,0.8,0.6,1.2,1c0,0-0.1-0.1-0.1-0.1c0.3,0.2,0.5,0.4,0.7,0.6
			l0.1-0.1c1.1,1,2,2.2,2.9,3.4c0.2,0.3-0.3-0.6,0.2,0.1c-0.1,0.2,0.6,0.9,0.4,1.1l0.5,0.6v0.2c0.5,0.4,0.3,0.9,0.8,1.7
			c0-0.1,0-0.1,0-0.1c0.1,0.3,0.4,0.9,0.1,0.5c0.2,0.4,0.7,2.1,0.6,1.3c0,0.1-0.2-0.6-0.3-0.9c0.1,0,0.3,0.7,0.5,0.9
			c0,0,0,0.1,0,0.2l0.1,0.1c0.2,0.8,0.4,1.7,0.5,2.5c0.1,0.2,0.1,0.3,0.2,0.5h-0.1l0.2,1l0.1-0.5c0.1,0.5,0.2,1,0.2,1.4v0.3
			c0,0.1,0,0.3,0,0.2v0.1c0,0,0.1,0.1,0.1,0.1c0,0-0.1,0-0.1,0c-0.2,0-0.4,0-0.5,0c-0.2,0-0.5,0-0.7,0.1l0.7,0.1
			c-1.5,0-1.8,0.1-3.2,0c1.2-0.1,1.2,0,3-0.2c-1.8,0.1-3.1-0.1-4.7,0c0.1,0.1,0.5,0.1,0.1,0.1c-0.3-0.1-1.5,0-1.3-0.1
			c-0.5,0.1-0.6,0.2-0.9,0.2l-1.7-0.2h0.1c-2.9,0.3-5.4-0.2-8.3-0.1l0.1,0.1l-0.7-0.1c0.6,0.1-0.2,0.1-0.3,0.2l-1.9-0.2
			c0,0.1,0.1,0.2,0.5,0.2c-0.7,0-1.4,0-2.1-0.1l0.2,0.1h-0.6v0.1c-0.9,0-1.8,0-2.7-0.1l0.1,0.1l-1.1-0.1l0.6,0.1
			c-1.2,0-3.1-0.1-3.4-0.1h0.1c-0.2,0-0.4,0-0.6,0l0.2,0.1c-1.9,0-2.4,0.2-4.4,0.1c-0.6,0,0.3,0,0.3,0.1c-0.4,0.1-0.8,0.1-1.2,0
			c0.2,0.1,1,0.1,0.4,0.2c-0.5-0.1,0.3,0.1-0.5,0.1l-0.3-0.2c-0.5,0-0.1,0.1-0.8,0.1s1-0.2-0.3-0.2c-0.9,0.2-1.8,0.3-2.7,0.3
			c-1.1,0.1,0.6,0.3-1,0.2l0.5,0.1h-2.4c0-0.1,0-0.2,0-0.2C493,165.7,493.1,164.6,493.1,164z M494.7,158.6c0-0.1,0.1-0.1,0.2-0.1
			c-0.2,0.3-0.5,1.4-0.7,1.8c0.1-0.3,0.2-0.6,0.3-0.9c-0.2,0.3-0.3,0.7-0.4,1C494.2,159.8,494.4,159.2,494.7,158.6L494.7,158.6z
			 M495.5,156.8L495.5,156.8c0.3-0.7,0.8-1.3,1.3-1.9c-0.2,0.5-0.8,0.9-0.8,1.1c0.2-0.2,0.5-0.6,0.5-0.6c-0.2,0.4-0.5,0.8-0.8,1.2
			l0.1-0.2c-0.2,0.3-0.4,0.5-0.6,0.8L495.5,156.8L495.5,156.8z M493.9,161c0,0,0.1-0.1,0.1-0.1l-0.2,0.6
			C493.7,161.3,493.8,161.1,493.9,161z M497.6,153.8l0.4-0.5l-0.1,0.3L497.6,153.8z M502.9,149l-0.1,0.1c-0.1,0-0.2,0.1-0.3,0.2
			C502.6,149.2,502.8,149.1,502.9,149L502.9,149z M532,166l0.2,0.1L532,166l0.6,0.1c-0.6,0-1.2,0-1.8-0.1
			C531.2,166.1,532.2,166.3,532,166z M534.3,160.6c0.2,0.6,0.1,0.6,0.2,0.9c-0.1-0.3-0.1-0.4,0-0.4
			C534.4,161,534.3,160.8,534.3,160.6L534.3,160.6z M534.1,162.9l-0.1-0.4C534.1,162.7,534.2,162.9,534.1,162.9L534.1,162.9z
			 M533.6,158.5c0,0-0.1,0-0.2-0.1c0-0.3-0.1-0.5-0.2-0.7C533.4,158,533.5,158.3,533.6,158.5L533.6,158.5z M534.3,160.5L534.3,160.5
			l0.2,0.6c0-0.2-0.1-0.3-0.1-0.5L534.3,160.5z M535,163.5C535,163.6,535,163.6,535,163.5c-0.1-0.2-0.1-0.3-0.1-0.5
			C534.9,163.2,535,163.4,535,163.5L535,163.5z M534.5,163.8c0,0.6,0.3,1,0.1,1.2c0-0.1,0-0.3,0-0.4c0,0.1-0.1,0.5-0.1,0.2
			S534.5,163.9,534.5,163.8L534.5,163.8z M532.6,156.2l-0.1-0.1L532.6,156.2z M531.3,154.1c-0.3-0.5-0.7-1-1-1.4
			c-0.1-0.1-0.2-0.2-0.3-0.4c0.7,0.4,0.2,0.2,0.9,1.1c-0.8-1.1-0.4-0.8-0.2-0.8C530.7,153,531.7,154.2,531.3,154.1L531.3,154.1z
			 M522.2,147.2l0.2-0.1c0.5,0.2,0.9,0.5,1.3,0.9c-0.8-0.3-0.9-0.6-0.8-0.6C522.4,147.1,522.5,147.3,522.2,147.2L522.2,147.2z
			 M524.3,148.4l-1-0.4C523.7,148.1,523.9,148,524.3,148.4z M518.4,146c0.2,0.1,0.3,0.1,0.2,0.1C518.2,146.1,518.5,146.1,518.4,146
			L518.4,146z M516.1,146.2c0.7,0,0.4,0,0.3,0.1c0.1,0,0.2,0,0.3,0.1c-0.3,0-0.4-0.1-0.3-0.1L516.1,146.2z M516.6,146.2l1.3,0.1
			C517.5,146.3,517.1,146.3,516.6,146.2z M511.6,145.9c-0.3,0.1-0.6,0.1-0.9,0.2h-0.3L511.6,145.9L511.6,145.9z M506.6,147.2
			c0.7-0.2,1.9-0.7,2.4-0.8c0.1-0.1,0.1-0.1,0.2-0.1c-0.1,0-0.1,0.1-0.2,0.1c0,0,0,0,0.1,0.1c-0.3,0-0.6,0.1-0.8,0.2
			c0.2,0,0.5,0,0.7-0.1c-0.6,0.2-2,0.3-1.5,0.5C507.2,147.1,506.4,147.4,506.6,147.2L506.6,147.2z M516.2,166.4
			c0.2,0,0.4-0.1,0.6-0.1c-0.1,0,0,0.1,0.3,0.1H516.2z M505.2,166.8c-0.2,0-0.8,0-0.6-0.1L505.2,166.8z M504.2,166.6l-0.3-0.2h0.3
			L504.2,166.6z M500.5,166.8c-1,0.1-0.9-0.1-1-0.2s-0.2-0.1-0.2-0.1c0.1,0,0.2,0,0.2,0.1c0.3,0,0.6,0,0.9,0c-0.1-0.1-0.3,0-0.5,0
			c0.2,0,0.5,0,0.7,0C500.3,166.8,500.5,166.8,500.5,166.8L500.5,166.8z M499.2,166.8h-0.4v-0.2L499.2,166.8z M498.2,166.4
			c0,0,0,0,0.1-0.1h0.3h0.1L498.2,166.4z M506.2,165.7c0.6-0.1,0.5,0.1,1.1,0.1C506.6,165.9,506.7,165.7,506.2,165.7L506.2,165.7z
			 M508.1,165.9c-0.3,0-0.5,0-0.8,0C507.5,165.9,507.8,165.9,508.1,165.9z M524.3,166.1h0.4c-0.7,0.1-0.5-0.1-0.9-0.1h0.3
			c0.2-0.1-0.5-0.1-0.5-0.1c0.4,0,1.2,0,0.9,0C523.7,165.9,524.8,166,524.3,166.1L524.3,166.1z M524.8,165.8
			c0.4-0.1,0.7-0.1,1.1,0.1C525.4,165.8,525.2,165.9,524.8,165.8z M530,166.4L530,166.4h0.2H530z M506.1,147.3l0.3-0.1
			c-0.4,0.3-0.8,0.5-1.3,0.6l-0.5,0.2C505.1,147.7,505.6,147.5,506.1,147.3z M498.5,152.7c0.3-0.2,0.6-0.4,0.8-0.7l-0.2,0.1l0.5-0.5
			l0.3-0.2c-1.1,1.1-2.2,2.3-3.1,3.6C497.2,154.2,497.8,153.4,498.5,152.7z M502.7,147l-0.3,0.1L502.7,147z M511.9,192.4l-1.3-0.3
			C510.9,192.2,512.3,192.4,511.9,192.4L511.9,192.4z M512.8,192.6l0.7,0.2l-0.7-0.1L512.8,192.6z M493.6,175c0,0.2,0.1,0.4,0.1,0.6
			C493.7,175.4,493.7,175.2,493.6,175z M492.8,169.4v-0.5c0.1,1,0.2,2.8,0.4,4.4C493,172,492.8,170.7,492.8,169.4L492.8,169.4z
			 M492.8,168.4L492.8,168.4L492.8,168.4z M525.4,146.3c0.4,0.2,0.8,0.5,1.2,0.9c-0.5-0.3-1-0.6-1.5-0.8
			C525.3,146.3,525.4,146.3,525.4,146.3L525.4,146.3z M518.7,144c0.7,0.1,0.9,0.1,0.8,0.2c0.3,0.1,0.9,0.2,1.2,0.3
			C519.3,144.3,519.5,144.1,518.7,144l-0.7-0.1L518.7,144L518.7,144z M516.9,143.2c-0.3,0-0.7,0-1-0.1L516.9,143.2z M514.2,143.7
			c0.4,0.1,0.7,0.1,1.1,0.1c-0.3,0-0.5,0-0.8,0h-0.3C514.1,143.9,514,143.8,514.2,143.7L514.2,143.7z M511.6,143.3
			c0.7-0.1,1.4-0.1,2.1,0c-0.6,0-1.1,0-1.7,0.1c-0.5,0.1-0.8,0.1-0.9,0.1l1-0.1C511.8,143.3,510.9,143.3,511.6,143.3L511.6,143.3z
			 M501.2,147.3l0.4-0.1L501.2,147.3l1.3-0.6l-3.4,2.1C499.7,148.3,501.6,147.2,501.2,147.3L501.2,147.3z M498.1,150.3l-0.2,0.2
			h-0.1L498.1,150.3L498.1,150.3z M492.4,157.6c-0.5,0.9-0.4,1.4-0.9,2.2C491.7,159.1,492,158.3,492.4,157.6L492.4,157.6z
			 M491.4,160.6c-0.4,1.7,0.3-0.8,0.1,0.4c0.1-0.3,0.2-0.6,0.2-0.9c-0.3,1.4-0.4,1-0.6,2l0.1-0.7c0-0.5-0.3,1-0.4,1.1
			C491,161.9,491.2,161.3,491.4,160.6L491.4,160.6z M490.6,168.1c0,0.2,0,0.4,0,0.6C490.6,168.6,490.6,168.4,490.6,168.1z
			 M492.1,177c0.1,0.3,0-0.1-0.1-0.6c0.2,0.6,0.4,1.2,0.6,1.8C492.6,178.2,492.4,177.6,492.1,177L492.1,177z M504.4,191.4
			c1,0.4,1.1,0.4,1.7,0.6C505.5,191.9,504.9,191.6,504.4,191.4L504.4,191.4z M505.9,192c1.6,0.5,1.3,0.6,2.3,0.8
			C507.4,192.7,506.6,192.4,505.9,192L505.9,192z M525,191l-0.6,0.2c-0.2,0.1-0.2,0-0.2,0c0.3-0.1,0.7-0.2,1-0.4
			C525.4,190.8,525.4,190.8,525,191L525,191z M531.5,184.4L531.5,184.4z M531.3,184.5L531.3,184.5L531.3,184.5L531.3,184.5
			L531.3,184.5z M522.3,189.9l-0.7,0.2c-0.1,0-0.2,0-0.3,0.1C521.7,190.1,522,190,522.3,189.9L522.3,189.9z M520.2,190.4
			c-0.7,0.1-1.3,0.2-2,0.4C518.8,190.7,519.5,190.6,520.2,190.4c-1.3,0.3-2.5,0.5-3.8,0.6c-0.1,0-0.3,0-0.3-0.1
			C516.9,191,519.4,190.5,520.2,190.4L520.2,190.4z M508.5,190c0.7,0.1,1.2,0.3,1.7,0.4s0.9,0.2,1.4,0.3H511
			c1.2,0.2,1.7,0.3,2.1,0.4c-0.3,0-0.7,0-1-0.1h0.1c-1.7-0.2-3.3-0.6-4.9-1.2c1,0.3,2.5,0.8,2.8,0.8
			C509.5,190.5,509,190.3,508.5,190L508.5,190z M503.9,188.2c0.2,0.2,0.4,0.3,0.5,0.4c-0.4-0.2-0.8-0.4-1.2-0.6L503.9,188.2z
			 M504.9,188.9c1,0.5,2.1,0.9,3.2,1.3c-2.1-0.6-4.1-1.5-5.9-2.7c-0.1-0.1-0.2-0.1-0.3-0.2l0,0c-0.2-0.1-0.3-0.3-0.5-0.4
			c-0.3-0.3-0.8-0.6-1.2-1c0.1,0.1,0.2,0.3,0.3,0.4c-0.4-0.3-0.7-0.7-1.1-1l-0.6-0.7C500.5,186.3,502.6,187.8,504.9,188.9
			L504.9,188.9z M494.3,177.1l0.1,0.3c0.1,0.2,0.2,0.5,0.3,0.7C494.6,177.8,494.4,177.5,494.3,177.1L494.3,177.1z M494.3,175.8
			c-0.1-0.2-0.1-0.4-0.2-0.6C494.1,175.4,494.2,175.6,494.3,175.8L494.3,175.8z M498.5,168.5c-0.6,0-1.2,0-1.8,0
			c0.2,0.1,1.1,0,1.5,0.1c-1.3,0.1-4.3-0.3-3.5,0.1c-0.3,0-0.9-0.1-1.2-0.1s-0.4-0.1-0.4,0s-0.1,0,0-0.1c0.6,0,1.7,0,2.8,0
			S497.8,168.5,498.5,168.5c0.1-0.1,0.2-0.1,0.4-0.1L498.5,168.5C498.3,168.4,498.4,168.4,498.5,168.5c0.2,0,0.4,0,0.5,0
			C498.8,168.5,498.7,168.5,498.5,168.5L498.5,168.5z M502.2,168.4h-0.5h2.5C503.7,168.5,502.6,168.5,502.2,168.4L502.2,168.4z
			 M514.6,168.9H514C515.6,168.8,514.8,168.9,514.6,168.9l0.8,0.1C514.6,168.9,514.5,168.9,514.6,168.9L514.6,168.9z M515.1,168.7
			h2.9C517,168.8,516.1,168.8,515.1,168.7z M519.5,168.5c-1.1,0-0.5-0.1-0.7-0.1h0.1C519.3,168.4,519.6,168.5,519.5,168.5
			L519.5,168.5z M529.1,168.5c-0.6,0-1.1,0-1.7,0.1l0.4-0.1c1.1,0,2.2,0.1,3.3,0.3C529.4,168.8,528.9,168.6,529.1,168.5L529.1,168.5
			z M530.5,168.9c-0.2,0-0.4,0-0.7,0H530.5c0.7-0.1,1.5-0.2,2.3-0.1L530.5,168.9z"/>
		<path id="Path_35" class="st0" d="M526.9,181.2c0.6-0.3,1.1-0.6,1.6-1C528,180.6,527.5,181,526.9,181.2z"/>
		<path id="Path_36" class="st0" d="M342.4,177l-0.1,0.3C342.3,177.2,342.4,177.1,342.4,177z"/>
		<path id="Path_37" class="st0" d="M461.3,183.6l0.1,0.1C461.3,183.4,461.3,183.4,461.3,183.6z"/>
		<path id="Path_38" class="st0" d="M382.7,171.3l-0.1-0.1c-0.1-2.3,0.2-0.5,0.1-1.9c0,0.6,0,0.4,0,0.6c0-1,0-2-0.1-2.9
			c-0.1,0.7,0,2.8-0.2,2.2c0.1-2.6,0-6.7,0.3-7.1c0.1-2.7-0.3-5.3-1-7.9c-0.7-2.4-2-4.6-3.9-6.3c-0.5-0.4,0.2,0.3,0,0.1
			c-0.4-0.4-0.8-0.7-1.2-1.1c-0.5-0.3-1-0.7-1.6-1l-1.4-0.7c-0.2-0.1-0.4-0.2-0.6-0.3c-0.4-0.2-0.9-0.3-1.3-0.3
			c-1.2-0.4-2.3-0.8-3.6-0.9c0.3,0,0.6,0.1,1,0.2h-0.1c-0.5-0.1-0.9-0.2-1.4-0.3h0l-1.3-0.2l-1.3-0.1c-0.9-0.1-1.8-0.1-2.7,0
			c-1.7,0.1-3.4,0.4-5,0.7c1.6-0.3-0.1,0.2,0.3,0.1c-1.1,0.2-2.3,0.5-3.3,0.9c-1.5,0.6-2.9,1.3-4.2,2.1c0,0-0.1,0.2,0.2,0
			c-0.5,0.3-1,0.5-1.5,0.8l0.2-0.1c-0.6,0.4-1.3,0.9-2,1.3l-1,0.7l-1.4,1.1l1,1.4l0.5,0.7l0.3,0.4c0,0,0.1,0.2,0.1,0.1l0.1-0.1
			l1.9-1.4l-1.1,0.8c-0.1,0.1-0.2,0.1-0.3,0.1l0.9-0.7l0.6-0.5c0.4-0.3,0.9-0.6,1.3-0.9c1-0.6,2-1.2,3-1.7c-0.1,0-0.1,0.1-0.2,0.1
			c0.6-0.3,1.3-0.6,1.9-0.9v-0.1c1.4-0.6,2.8-1,4.2-1.3c1.8-0.4,3.6-0.6,5.4-0.5c0.7,0.1-1.5-0.2,0.4-0.1c0.4,0.1,0.9,0.2,1.3,0.2
			c0.6,0.1,1.2,0.1,1.2,0.3c0.5,0,1.1,0.1,1.6,0.2c0.1,0.1,0.2,0.1,0.3,0.2c1.4,0.1,2,0.6,3.8,1.5c-0.1-0.1-0.3-0.2-0.2-0.1
			c0.6,0.3,1.8,1.2,0.8,0.6c0.7,0.5,1.3,1,1.9,1.6c0.6,0.6,0.9,1,0.4,0.3c0,0.1-0.9-1-1.4-1.4c0.3,0.1,0.5,0.3,0.8,0.5
			c0.3,0.3,0.6,0.6,0.9,0.8c0.1,0.1,0.2,0.2,0.2,0.4l0.2,0.1c1.1,1.5,1.7,3.3,2,5.1c0.1,0.4,0.2,0.7,0.3,1.1l-0.1,0.1
			c0.1,0.7,0.2,1.4,0.2,2.1l0.2-1c0.1,1.1,0.1,2.2,0,3.3c-0.1,1-0.1,1.9-0.1,3c0,0.1,0.1,0.3,0.1,0.4c0,0,0,0.1,0,0.1
			c-0.1,0-0.1,0-0.2,0h-1.2c-0.7,0-1.4,0-2.1,0.1l1.6,0.1c-3.4,0-4,0.1-7.1,0c2.7-0.1,2.7,0,6.7-0.2c-4,0.1-6.8-0.1-10.5,0
			c0.2,0.1,1.2,0.1,0.3,0.1c-0.7-0.1-3.4,0-2.9-0.1c-1.1,0-1.3,0.2-2,0.2c-1.3,0-2.6-0.1-3.9,0h0.1c-3.1,0.4-6.2,1.2-9,2.6
			c-1.4,0.7-2.7,1.7-3.9,2.9c-1.2,1.3-2,2.8-2.5,4.4l0.1-0.1c-0.2,0.5-0.3,0.9-0.4,1.4c0.2-0.8-0.1,0.9,0,1c-0.2,1.5-0.2,2.9,0,4.4
			c0.1,0.1,0.2-0.2,0-1.2c0.2,1.6,0.6,3.2,1.2,4.7c-0.1-0.2-0.1-0.3-0.1-0.5c0.2,0.4,0.4,0.9,0.6,1.3l0.1-0.1c0.6,1.1,1.3,2.1,2.2,3
			c0.8,0.9,1.6,1.4,1.9,1.8l-0.1-0.3c0.7,0.5,1.3,1,2.1,1.5c-0.4-0.2-0.8-0.5-1.2-0.8c1.3,0.9,2.7,1.5,4.2,2
			c0.6,0.2,1.3,0.4,1.9,0.5c0.3,0.1,0.7,0.2,1,0.2l-0.2-0.1c0.5,0,0.8,0.1,1.3,0.2l-0.4-0.1c1.6,0.2,3.2,0.2,4.8,0
			c1.7-0.2,3.4-0.4,5.1-0.8c1.2-0.3-0.7,0.1-0.7,0.1c0.3-0.1,0.9-0.3,1.4-0.4s1-0.3,1.2-0.3c-0.4,0-2.3,0.6-0.9,0.1
			c1-0.2-0.7,0.1,1-0.4l0.7-0.1c0.9-0.4,0.2-0.2,1.6-0.8c1.7-0.8-2,1.2,0.7-0.1c1.7-1.1,3.3-2.4,4.7-3.8c1.6-1.9-1,0.8,1.3-1.7
			c-0.2,0.3-0.5,0.6-0.8,0.8c0.6-0.6,1.1-1.3,1.6-2c0.1-0.1,0.1-0.1,0.1-0.2l-0.1,0.1c0.5-0.7,1-1.4,1.4-2.2v0.5c0,1,0,3.2,0,4.5v1
			v3.2l-0.1-0.1c0,0.4,0.1,1.4,0.1,2.2c0.3,0,0.6,0,0.9,0.1c-0.3,0.1-0.7,0.1-1,0.1v-2.4v2.5l2.4,0.1v-1.6c0-0.5,0-1.1,0-1.9l0,0.6
			c-0.1-2.1,0-4.3,0-6.1c0,0.5,0.1,0.6,0.1,0.4c-0.1-4.1-0.1-8.1-0.2-12.7L382.7,171.3z M382.3,175.2l0.1,0.7l-0.1,0.7V175.2z
			 M382.2,179.2v-5.6c0.1-0.8,0.1-1.5,0-2.3l-0.1,0.4v-1.5c0-0.1,0-0.3,0.1-0.9C382.3,172.6,382.3,175.9,382.2,179.2L382.2,179.2z
			 M378.9,153.8l-0.1-0.2c-0.1-0.2-0.2-0.4-0.3-0.7l0,0l0.1,0.1c0.1,0.3,0.3,0.7,0.4,1L378.9,153.8z M361.7,146
			c-0.4,0-0.7,0.1-1.1,0.1c1.5-0.4,0.6-0.1,3.1-0.4c-3,0.2-1.9,0-1.7-0.2c0.3,0,1.4,0,2.3,0s1.4,0.1,1.1,0.2s-0.7,0-1.1,0
			C363.5,145.9,362.6,145.9,361.7,146L361.7,146z M380.3,178.2c0,0.1,0,0.1-0.1,0.2c-0.3,0.6-0.6,1.1-0.8,1.7c0,0.1-0.1,0.2-0.1,0.2
			v0.1l0,0c-0.2,0.4-0.4,0.8-0.6,1.2v-0.1c-0.2,0.4-0.4,0.8-0.7,1.1c-0.1-0.1,0.4-0.8,0.6-1.1c-0.9,1.4-1.1,1.3-1.8,2.4l0.2-0.2
			c-0.5,0.7-1,1.3-1.6,1.9c0.1-0.2,0.1-0.2,0-0.2c-1.1,1.3-2.5,2.4-3.9,3.3l-0.6,0.1v0.1c-0.8,0.5-0.2,0-0.8,0.2
			c0.2-0.1,0.2-0.1,0.2-0.1c-1,0.3-0.5,0.3-1,0.6c0.3,0,1.1-0.4,0.9-0.2c-1,0.4-2.6,1-2.8,0.8c-1.9,0.6-4,1-6,1
			c-0.2,0.1,0.1,0,0.1,0.1c-0.7-0.1-2.2,0.2-2.2,0c-0.2,0-0.4,0.1-0.5,0.2c-0.4-0.1-0.9-0.1-1.4-0.2l0.4,0.1l0,0l-0.5-0.1l0,0
			c-1.3-0.1-2.6-0.5-3.9-1.1c0.6,0.3-0.2,0.1,0.1,0.3c-0.5-0.4-1.8-1-2.8-1.6c0,0-0.1,0,0,0.1c-0.2-0.1-0.3-0.3-0.5-0.5v0.1
			c-0.8-0.7-1.6-1.5-2.2-2.4c0.3,0.4,0.2,0.4,0.2,0.5c-0.6-0.7-1-1.5-1.3-2.3c0,0.1,0,0.1,0,0.1c-0.1-0.3-0.2-0.5-0.3-0.8h-0.1
			c-0.2-0.6-0.3-1.1-0.4-1.7c-0.1-0.7-0.2-1.4-0.2-2.2c0-0.3-0.1,0.6-0.1-0.2c0.2-0.1,0-1,0.3-1c0-0.2,0-0.4,0-0.6l0.1-0.1
			c-0.2-0.6,0.3-0.8,0.4-1.6c0,0-0.1,0.1-0.1,0.1c0.1-0.2,0.4-0.8,0.2-0.3c0.1-0.2,0.3-0.6,0.4-0.9s0.3-0.4,0-0.2
			c0.1,0-0.3,0.5-0.4,0.7c-0.1-0.1,0.2-0.6,0.2-0.8c0.1,0,0.1-0.1,0.1-0.1v-0.1c0.4-0.6,1-1.1,1.6-1.6c0,0,0.1-0.2,0.3-0.3l0.1,0.1
			l0.7-0.5l-0.4,0.1c0.3-0.3,0.7-0.5,1.1-0.6c0.4-0.2,0.7-0.2,1.1-0.4c0.1-0.3,1.5-0.5,2.1-0.9c-0.2,0-0.4,0.1-0.6,0.1
			c0.9-0.3,1.8-0.6,2.8-0.7c-0.9,0.2-1.7,0.5-2.5,0.9c1.3-0.4,2.6-0.7,4-0.9c-0.1-0.1-0.5,0-0.1-0.1c0.3,0.1,1.4-0.2,1.2,0
			c0.5-0.1,0.5-0.2,0.8-0.3c0.5,0,1,0.1,1.5,0.1h0c2.6-0.4,4.9,0.2,7.6,0.1l0-0.1l0.7,0.1c-0.5-0.1,0.2-0.1,0.3-0.2l1.7,0.2
			c0-0.1-0.1-0.2-0.5-0.2c0.6,0,1.3,0,1.9,0.1l-0.2-0.1l0.6,0.1v-0.1c0.8,0,1.6,0,2.4,0.1l-0.1-0.1l1,0.1l-0.6-0.1
			c1.1,0,2.8,0.1,3,0.1l-0.1-0.1c0.2,0,0.3,0,0.5,0l-0.1-0.1c0.3,0,0.7,0,1-0.1c0,0.1,0,0.2,0.1,0.4c0,0.4,0,0.8,0,1.3
			s0-0.3,0.1-0.3c0.1,0.4,0.1,0.7,0,1.1c0.1-0.1,0.1-0.9,0.2-0.3c-0.1,0.4,0.1-0.3,0.1,0.5l-0.2,0.3c0,0.4,0.1,0.1,0.1,0.7
			s-0.2-0.9-0.2,0.3c0.2,0.8,0.3,1.6,0.3,2.5c0.1,1,0.3-0.5,0.2,0.9l0-0.5v1.1L380.3,178.2L380.3,178.2z M376.7,184.5
			c-0.1,0-0.1,0.1-0.2,0c0.3-0.2,0.8-1.2,1.1-1.4l-0.5,0.7c0.3-0.3,0.5-0.6,0.7-0.9C377.4,183.4,377.1,183.9,376.7,184.5
			L376.7,184.5z M371.9,188.7c-0.3,0.1-0.6,0.2-0.9,0.4h0.2c-0.2,0.1-0.4,0.2-0.5,0.3l-0.4,0.1c1.2-0.6,2.4-1.4,3.5-2.2
			C373.3,187.9,372.6,188.3,371.9,188.7L371.9,188.7z M369.9,191.6c-0.1,0.1-0.3,0.1-0.5,0.1l-1.9,0.7c0.4-0.1,0.7-0.2,1.1-0.3
			c-0.5,0.2-1,0.4-1.5,0.5c0.7-0.4,0.2-0.2,0.2-0.3c1.9-0.7,1.9-0.6,2.1-0.5S369.9,191.6,369.9,191.6L369.9,191.6z M369.9,191.4
			l0.8-0.4v0.2L369.9,191.4z M351,147.7c0.7-0.4,1.4-0.7,2-1C352.4,147,351.7,147.4,351,147.7z M377.7,169.2c-0.5,0.1-0.5-0.1-1-0.1
			C377.4,169,377.3,169.2,377.7,169.2z M376.1,169c0.2-0.1,0.5-0.1,0.8,0C376.6,169,376.3,169,376.1,169z M368.1,168.6
			c0.1,0,0-0.1-0.3-0.1h0.8C368.6,168.5,368.3,168.5,368.1,168.6L368.1,168.6z M361.3,168.8h-0.4c0.6-0.1,0.4,0.1,0.8,0.1h-0.3
			c-0.2,0.1,0.4,0,0.5,0.1c-0.3,0-1.1,0-0.8,0C361.9,168.9,360.9,168.8,361.3,168.8L361.3,168.8z M360.9,169.1c-0.3,0.1-0.7,0.1-1,0
			C360.3,169.2,360.5,169,360.9,169.1z M356.2,168.9H356H356.2L356.2,168.9z M354.4,169.7l-0.2-0.1L354.4,169.7l-0.6,0
			c0.5-0.2,1.1-0.3,1.6-0.2C355.1,169.5,354.2,169.5,354.4,169.7L354.4,169.7z M350.4,171.6c-0.2,0-0.7,0.3-0.8,0.3
			c0.5-0.2,0.7-0.6,0.9-0.5c-0.1,0-0.2,0.1-0.4,0.2C350.3,171.6,350.6,171.4,350.4,171.6L350.4,171.6z M349.2,171.6
			c-0.1,0-0.4,0.1-0.6,0.3C348.8,171.8,349,171.6,349.2,171.6C349.3,171.4,349.2,171.5,349.2,171.6L349.2,171.6z M346.2,175.2
			c-0.2,0.1-0.3,0.3-0.4,0.5c0.1-0.2,0.2-0.4,0.3-0.6C346.1,175,346.1,175.1,346.2,175.2z M349.6,188.6h-0.2
			c-0.3-0.3-0.6-0.7-0.8-1.1c0.6,0.4,0.6,0.7,0.5,0.8C349.4,188.6,349.4,188.5,349.6,188.6L349.6,188.6z M348.2,186.9
			c0.2,0.2,0.4,0.4,0.7,0.6C348.6,187.3,348.4,187.4,348.2,186.9L348.2,186.9z M350.6,189.3L350.6,189.3L350.6,189.3z M352.4,190.3
			c0.4,0.2,0.2,0.1,0.2,0.2l0,0C352.5,190.4,352.4,190.3,352.4,190.3L352.4,190.3z M354.7,190.7c-0.6-0.1-0.3-0.1-0.2-0.1l-0.3-0.1
			c0.3,0.1,0.3,0.1,0.3,0.1L354.7,190.7z M354.2,190.7c-0.4-0.1-0.8-0.2-1.1-0.4C353.5,190.4,353.9,190.5,354.2,190.7L354.2,190.7z
			 M361.2,191.5c0.5-0.2,1.8,0.1,1.4-0.2c0.2,0,1,0,0.8,0.1c-0.6,0.1-1.8,0.2-2.3,0.3c-0.1,0-0.1,0-0.2,0c0.1,0,0.1,0,0.2,0
			c0,0,0-0.1,0-0.1c0.3,0,0.5,0,0.8-0.1C361.7,191.5,361.3,191.6,361.2,191.5L361.2,191.5z M363.6,191.5c0.6-0.2,1.1-0.3,1.7-0.2
			c-0.5,0.1-1,0.2-1.5,0.3L363.6,191.5z M367,190.8l0.1-0.1l0.3-0.1L367,190.8z M359.5,191.8c-0.3,0-0.6,0-0.8,0
			C358.9,191.8,359.2,191.8,359.5,191.8h0.2H359.5z M345.3,181.4c-0.3-0.6,0-0.2-0.2-1.3c0.1,1.2-0.1,0.8-0.2,0.7
			c0.1-0.2,0-1.7,0.3-1.4c0,0.5,0,1,0.1,1.6C345.2,181.1,345.3,181.3,345.3,181.4z M347.1,173.4L347.1,173.4
			c0.1-0.1,0.2-0.2,0.3-0.3L347.1,173.4L347.1,173.4z M347.8,172.8c-0.2,0.2-0.2,0.3-0.3,0.2c-0.1,0.1-0.2,0.3-0.3,0.4
			C347.5,172.9,347.6,173,347.8,172.8L347.8,172.8z M349,172.5l-0.3,0.2C348.9,172.6,349,172.5,349,172.5L349,172.5z M348.6,171.9
			l-0.3,0.2L348.6,171.9z M380,168.4h-0.3v-0.1C379.8,168.3,379.8,168.4,380,168.4L380,168.4z M379.2,168.2l-0.6-0.1
			C378.8,168.1,379.4,168.1,379.2,168.2L379.2,168.2z M380.2,172.8C380.2,172.8,380.2,172.8,380.2,172.8v0.4c0,0.1,0,0.1-0.1-0.1
			L380.2,172.8z M358.6,193.4c-0.5,0-0.9-0.1-1.4-0.2C357.5,193.3,359,193.4,358.6,193.4L358.6,193.4z M372.4,188.2l0.2-0.2l0.3-0.1
			L372.4,188.2z M374.2,186.7c0.3-0.3,0.6-0.6,1-0.9L375,186c0.2-0.2,0.5-0.4,0.7-0.5l-0.3,0.3l0,0c-0.5,0.5-1,1-1.7,1.3
			c0.3-0.4,0.9-0.6,1-0.8C374.6,186.5,374.2,186.8,374.2,186.7L374.2,186.7z M378,182.6c0,0-0.1,0.1-0.1,0.1
			c0.1-0.1,0.2-0.3,0.3-0.5C378.1,182.4,378,182.5,378,182.6L378,182.6z M380.4,172.3c0-0.1,0-0.1,0.1-0.2c0-0.3,0-0.6,0-0.9
			c-0.1,0.1,0,0.3,0,0.5c0-0.2,0-0.4,0-0.7c0.1,0.3,0.1,0.1,0.2,0.1c0.1,0.9-0.1,0.8-0.2,0.9S380.6,172.3,380.4,172.3L380.4,172.3z
			 M380.7,172.3v0.4h-0.1L380.7,172.3z M380.1,158.4c0,0.3,0,0.7,0.1,1c0,0.1,0,0.1-0.1-0.1C380.2,159,380.2,158.7,380.1,158.4
			L380.1,158.4z M380,157.6c0-0.3-0.1-0.6-0.1-0.9C379.9,157,380,157.3,380,157.6z M360.3,193.6h-0.7v-0.1L360.3,193.6z
			 M382.3,160.9v0.8v-1.1V160.9z M381.1,153.5c0.2,0.5,0.3,1.1,0.5,1.6c0.1,0.4,0.1,0.7,0.2,1.1c-0.2-1.2-0.6-2.4-1.1-3.5
			c-0.1-0.2-0.1-0.4-0.2-0.5C380.7,152.6,380.9,153,381.1,153.5z M376.6,147.3c0.4,0.4,1.1,0.9,1.4,1.2c-0.3-0.4-0.7-0.8-1.1-1.1
			c0.4,0.2,0.7,0.5,1,0.8l0.9,1c0.5,0.7,0.8,1.1,0.7,0.7c0.4,0.5,1.2,2.3,0.8,1.7c-0.2-0.3-0.4-0.8-0.7-1.2s-0.6-0.9-1-1.3
			s-0.7-0.8-1.1-1.1L376.6,147.3c-0.1,0-0.2-0.1-0.4-0.2C376.3,147.2,376.5,147.3,376.6,147.3C376.7,147.4,376.7,147.4,376.6,147.3
			c0-0.2-0.3-0.3-0.4-0.4C376.4,147,376.5,147.1,376.6,147.3L376.6,147.3z M371.8,144.9c0.5,0.1,1.2,0.4,1.4,0.5l0.3,0.1
			c-0.7-0.3-1.4-0.6-2.1-0.8C371.5,144.8,371.7,144.8,371.8,144.9L371.8,144.9z M360.8,143.5h0.6
			C359.8,143.8,360.6,143.6,360.8,143.5c-0.3,0-0.5,0-0.8,0.1C360.7,143.5,360.8,143.5,360.8,143.5z M360.3,143.8
			c-1,0.2-2,0.4-2.9,0.7C358.3,144.1,359.3,143.9,360.3,143.8L360.3,143.8z M356,145.1c1.1-0.3,0.5-0.1,0.7-0.1l0,0
			C356.2,145.1,355.9,145.2,356,145.1L356,145.1z M351.3,147.3L351.3,147.3C351.3,147.3,351.3,147.3,351.3,147.3z M347.4,149.8
			c0.5-0.3,0.9-0.6,1.4-1l-0.3,0.4c-0.8,0.5-1.2,0.8-1.6,1l-0.6,0.4c-0.3,0.2-0.7,0.4-1,0.6c0.4-0.3,0.7-0.6,1.1-0.9
			c0.2-0.1,0.4-0.3,0.6-0.4C347.3,149.7,347.4,149.7,347.4,149.8L347.4,149.8z M345.5,151.6l-0.3-0.3l-0.1-0.2
			c-0.1-0.1,0.1-0.1,0.1-0.1l0.6-0.5l0.4-0.3l0.3-0.3l-0.7,0.6c-0.2,0.2-0.4,0.4-0.6,0.5l-0.1,0.1c0,0,0.1,0.1,0.1,0.1l0.2,0.3
			c0.4,0.5,0.7,1,1,1.5L345.5,151.6z M369.5,146.2l0.4,0.1L369.5,146.2z M375.4,149.1c-0.3-0.4-0.7-0.7-1.1-1c0.5,0.3,0.9,0.6,1.4,1
			C375.6,149.1,375.5,149.1,375.4,149.1L375.4,149.1z M379.3,157.7c0-0.3-0.1-0.6-0.1-0.9C379.3,157.1,379.3,157.4,379.3,157.7z
			 M379.3,155c-0.2-0.7-0.3-0.9-0.2-0.8c-0.1-0.3-0.4-0.8-0.5-1.1C379,153.6,379.2,154.3,379.3,155l0.2,0.7
			C379.4,155.3,379.3,155.2,379.3,155L379.3,155z M379.7,159.9c0.1,0.9,0.1,1.7,0,2.6c0-0.5,0-0.7,0-1c-0.1,0.2-0.1,1.2-0.2,0.5
			C379.6,161.5,379.6,159.9,379.7,159.9L379.7,159.9z M373.6,166.1l0.4,0.1L373.6,166.1l1.4,0.1c-1.3,0-2.7,0-4-0.1
			C371.8,166.1,374,166.3,373.6,166.1L373.6,166.1z M369.3,166.5H369h-0.1C369,166.5,369.2,166.5,369.3,166.5L369.3,166.5z
			 M359.9,165.9c-1.1,0-1.5,0.2-2.4,0.1C358.3,165.9,359.1,165.8,359.9,165.9z M356.7,166.3c-1.7,0.3,0.9,0-0.3,0.2l0.9-0.1
			c-1.4,0.3-1.1,0-2.1,0.2c0.2-0.1,0.4-0.1,0.7-0.1c0.5-0.2-1,0.1-1.2,0.1C355.4,166.4,356.1,166.3,356.7,166.3L356.7,166.3z
			 M348.9,169.1l0.5-0.3C349.3,168.9,349.1,168.9,348.9,169.1L348.9,169.1z M343.6,175.7c0,0.3,0.1,0,0.2-0.4
			c-0.2,0.6-0.4,1.1-0.5,1.7C343.4,176.6,343.5,176.2,343.6,175.7L343.6,175.7z M351,192.5c1,0.3,1.1,0.4,1.7,0.7
			C352.1,193,351.6,192.8,351,192.5z M352.5,193.2c1.7,0.4,1.3,0.6,2.4,0.8C353.5,193.8,353.8,193.6,352.5,193.2z M371.8,190.9
			l-0.6,0.3c-0.1,0-0.1,0-0.2,0c0.3-0.2,0.7-0.4,1-0.5C372.1,190.7,372.1,190.7,371.8,190.9L371.8,190.9z M380.4,193.8L380.4,193.8
			h1c0.1,0,0.2,0,0.4,0H380.4z M382.4,193.1V191v2.6v-4.4c0-0.2,0-0.4,0.1-0.4c0,0.8,0.1,3.4,0,4.2L382.4,193.1z M382.5,184.3l0-0.6
			c0,1.2-0.1,1.7-0.1,2.1v-1c0-1.7,0-4.2,0.2-5.1c0.1,1.1-0.1,2.6-0.1,3c0-0.6,0-1.2,0.1-1.7C382.6,182.1,382.5,183.2,382.5,184.3
			L382.5,184.3z"/>
		<path id="Path_39" class="st0" d="M263.6,190.4v0.1c0,0.1,0,0.1,0.1,0.1L263.6,190.4z"/>
		<path id="Path_40" class="st0" d="M379,180.6l0.2-0.4v-0.1L379,180.6z"/>
		<path id="Path_41" class="st0" d="M357.1,191.1h0.2H357.1L357.1,191.1z"/>
		<path id="Path_42" class="st0" d="M514.2,135.1L514.2,135.1z"/>
		<path id="Path_43" class="st0" d="M345.9,181.8L345.9,181.8C345.9,181.9,346,181.9,345.9,181.8
			C345.9,181.9,345.9,181.8,345.9,181.8z"/>
		<path id="Path_44" class="st0" d="M493.5,157.4c-0.1,0.4-0.2,0.3-0.2,0.8C493.4,157.9,493.4,157.7,493.5,157.4z"/>
		<path id="Path_45" class="st0" d="M348.9,172.8c-0.1,0-0.2,0.1-0.3,0.1C348.6,173,348.8,172.9,348.9,172.8z"/>
		<path id="Path_46" class="st0" d="M493.4,157.2l-0.2,0.4l0.1,0.1L493.4,157.2z"/>
		<path id="Path_47" class="st0" d="M287.9,164c-0.1,0.4-0.2,0.3-0.2,0.9C287.8,164.6,287.8,164.3,287.9,164z"/>
		<path id="Path_48" class="st0" d="M324.2,152.6L324.2,152.6c-0.1-0.1-0.1-0.1-0.1-0.1L324.2,152.6z"/>
		<path id="Path_49" class="st0" d="M322,150.5c0.1,0.1,0.2,0.2,0.4,0.3L322,150.5z"/>
		<path id="Path_50" class="st0" d="M379.3,179.7c-0.1,0.2-0.3,0.5-0.4,0.7C379.1,180,379.2,180.1,379.3,179.7z"/>
		<path id="Path_51" class="st0" d="M316.2,141.3L316.2,141.3z"/>
		<path id="Path_52" class="st0" d="M329,163.1c0-0.1,0-0.2,0-0.4C329,162.7,329,162.8,329,163.1z"/>
		<path id="Path_53" class="st0" d="M328.5,160.1L328.5,160.1C328.5,160.2,328.5,160.2,328.5,160.1z"/>
		<path id="Path_54" class="st0" d="M347.1,174.6L347.1,174.6C347.2,174.5,347.1,174.5,347.1,174.6z"/>
		<path id="Path_55" class="st0" d="M332.9,165.7c0-0.3,0-0.7-0.1-1L332.9,165.7z"/>
		<path id="Path_56" class="st0" d="M529.2,146.1L529.2,146.1c-0.1-0.1-0.1-0.1-0.2-0.1L529.2,146.1z"/>
		<path id="Path_57" class="st0" d="M527,144.1c0.1,0.1,0.2,0.2,0.3,0.3L527,144.1z"/>
		<path id="Path_58" class="st0" d="M326,139.8h0.2C325.7,139.6,325.8,139.7,326,139.8z"/>
		<path id="Path_59" class="st0" d="M379,157.3c0-0.2,0-0.5,0-0.8C378.9,156.5,378.9,156.8,379,157.3z"/>
		<path id="Path_61" class="st0" d="M331.6,159.2l-0.2-0.3l0.1,0.2C331.5,159.2,331.6,159.2,331.6,159.2z"/>
		<path id="Path_62" class="st0" d="M263.1,153.9v-0.7V153.9L263.1,153.9z"/>
		<path id="Path_63" class="st0" d="M263.3,153.4c-0.1,0.4-0.1,0.8-0.1,1.2L263.3,153.4z"/>
		<path id="Path_64" class="st0" d="M282.9,146.4v-3.3c0-0.1-0.1,0-0.2,0h-0.5c-0.7,0.1-1.4,0.1-2.1,0l0.2,0.1l-1.6,0.1h0.9
			c-1.6,0.2-3.2,0.5-4.8,1h0.2c-0.3,0.1-0.5,0.2-0.8,0.2h0.3c-1.4,0.5-2.8,1.2-4,2.1c-0.5,0.3-1.1,0.7-1.5,1.1
			c-0.6,0.5,0.4-0.3,0.4-0.2c-0.3,0.3-1.2,1-1.3,1.1c0.3-0.1,1.2-1,0.5-0.2c-0.5,0.4,0.4-0.2-0.5,0.6l-0.5,0.2c-0.4,0.5,0,0.2-0.7,1
			c-0.9,0.8,0.8-1.2-0.5,0.2c-0.6,0.8-1,1.8-1.9,3.4c-0.7,1.4,0.6-0.6-0.4,1.3c0.1-0.1,0.2-0.3,0.2-0.4c-0.2,0.4-0.4,0.9-0.6,1.3
			v0.1V156c-0.2,0.5-0.4,1-0.6,1.5v-0.4c0.1-1,0.1-1.9,0-2.9v-2.7l0.1,0.1c-0.1-0.7-0.1-1.3,0-2c0.1,0.7,0.1,1.3,0.1,2
			c0-2.5,0.3-2.6,0.2-4.7v0.4c0-0.6,0-1.2,0-1.8l0.1-2h-0.6c0.5,0,0.6-0.1,0.4-0.1h-2.5v3.6v3.3l-0.1,0.9l0.1,0.1
			c0,1.3-0.1,0.5-0.1,1c0-0.1,0-0.1,0-0.2c-0.1,1.7,0.1,0.9,0.1,1.9c0.1-0.4,0-1.8,0.2-1.4c-0.1,1.7-0.1,4.3-0.3,4.5
			c0.1,3.1-0.1,7-0.1,9.6c0,0.4,0-0.2,0.1-0.1c-0.1,1,0.1,3.5,0,3.5c0,0.3,0.1,0.6,0.2,0.8c-0.1,0.7-0.1,1.5-0.1,2.3v-0.6v0.1l0,0.9
			l0,0c0,2.1,0,4.5-0.2,6.4c0.1-1.1,0.2,0.3,0.2-0.2c-0.2,1.7-0.3,3.5-0.2,5.2c0,0,0.1,0.1,0.1-0.1l-0.1,1.1l0.1-0.1
			c0,2-0.2,4.1-0.1,5.4c0-0.8,0.1-0.8,0.1-0.9v4h1.5c-0.1,0-0.2,0-0.2,0c0.5,0,1.3,0,1.9,0.1V194l-0.1-0.2v-1v-0.8
			c0-0.5,0-1,0.1-1.5c-0.1-0.4,0.1-2.4,0.1-3.6c0-0.4-0.1,1-0.1-0.3c0.2-0.2,0-1.6,0.3-1.7l-0.1-1.1l0.1-0.2c-0.2-0.9,0.1-1.4,0-2.8
			c0,0.1,0,0.2-0.1,0.1c0-0.4,0-1.4,0.1-0.7c0-0.7,0.1-3.2-0.1-2.1c0,0.5,0,0.9,0,1.4c-0.1-0.1-0.1-1.1-0.2-1.4c0,0,0-0.2,0-0.3
			l-0.1-0.1c0.1-1.4,0-2.8,0.2-3.8c-0.1-0.2-0.1-0.5-0.1-0.8h0.1v-1.4l-0.2,0.7c0-1.6,0.2-2.7,0.2-4c-0.1-0.5-0.1-1-0.1-1.6
			c0-0.7,0.2-1.5,0.1-2.1l-0.2,1c0.1-1.5,0.3-3,0.7-4.4c-0.2,0.8-0.2,1.3-0.3,1.8c-0.1,0.8-0.2,1.6-0.1,2.4c0.2-2.1,0.6-4.3,1.3-6.3
			c-0.1,0.1-0.3,0.6-0.2,0.1c0.2-0.4,0.3-0.7,0.4-1.1c0.1-0.4,0.3-0.7,0.3-0.5c0.2-0.6,0.1-0.8,0.3-1.2c0.4-0.7,0.8-1.3,1.3-2
			l-0.1,0.1c0.9-1.7,2.1-3.1,3.6-4.2c1.5-1.1,3.2-2,4.9-2.6h-0.1c0.3-0.1,0.7-0.2,1-0.2c-0.8,0.1,0.3-0.2,0.3-0.2l1.2-0.2l1.3-0.1
			c0-0.1-0.1-0.2-0.7-0.1c0.5-0.1,1-0.2,1.4-0.2c0.6,0,1.2,0,1.8,0h-0.6h0.8h0.4h0.2c0.1,0,0-0.1,0-0.2L282.9,146.4z M263.7,173.3
			v0.6C263.7,173.6,263.6,173.3,263.7,173.3L263.7,173.3z M264,160.4l-0.1,0.3L264,160.4L264,160.4z M263,189.6c-0.3-1,0-0.4-0.1-2
			c0,1.9-0.2,1.2-0.3,1.1c0.1-0.4,0.1-2.6,0.3-2.2v2.4C263,189.2,263,189.4,263,189.6L263,189.6z M263,176.2v0.2v-0.9V176.2z
			 M261,149.6c-0.1,0.5-0.1,1-0.1,1.5l0.1-0.3v0.9c0,0,0,0.2-0.1,0.6c0-2,0-4.2,0.1-6.3V149.6z M261,158l-0.1-0.2v-0.5L261,158z
			 M261,160.7v2.4v0.4C260.9,162.5,260.9,161.6,261,160.7L261,160.7z M261,171.1c0-0.4,0-0.8,0-1.3c0-0.1,0-0.2,0-0.4V171.1z
			 M261,180.7L261,180.7c0,0.3-0.1,0.5-0.1,0.4C260.9,180.4,261,180.8,261,180.7L261,180.7z M260.9,187.4c0.1-0.4,0.1-0.7,0-1.1
			l0.1,0.3c0,0.7-0.1,1.4-0.3,2.1C260.6,187.6,260.8,187.3,260.9,187.4L260.9,187.4z M262.9,180.6v-1.1c0.1,0,0.1,0.1,0.1,0.1
			C263,180,262.9,180.3,262.9,180.6L262.9,180.6z M262.9,172.9v-0.7c0-0.1,0.1-0.1,0.1,0C263,172.4,262.9,172.6,262.9,172.9
			L262.9,172.9z M268.3,149.3c0.2-0.2,0.5-0.5,0.7-0.7c-0.3,0.4,0,0.2,0,0.3c-0.9,0.9-1,0.8-1.1,0.8s-0.2,0.2-0.3,0.1
			c0.1-0.1,0.2-0.1,0.3-0.1c0.3-0.3,0.7-0.6,0.9-0.9C268.7,148.9,268.5,149.2,268.3,149.3L268.3,149.3z M272.7,146l0.4-0.1l0.1,0.1
			L272.7,146z M274.6,145.6c-0.2,0.1-1.1,0.4-0.8,0.2C274,145.7,274.3,145.7,274.6,145.6L274.6,145.6z M267.8,150.1l-0.4,0.4
			l-0.1-0.1L267.8,150.1z M274.2,144c0.4-0.1,0.8-0.2,1.2-0.2C275,143.8,274.6,143.9,274.2,144L274.2,144z M277.1,143.8
			c-0.5,0.2-1,0.2-1.6,0.3C276.1,144,276.6,143.9,277.1,143.8L277.1,143.8z M266.6,150.7c0.1-0.1,0.2-0.2,0.3-0.3s0.1-0.1,0.1-0.1
			l-0.5,0.6C266.5,150.9,266.5,150.9,266.6,150.7L266.6,150.7z M262.9,150.3v-0.7c0-0.1,0-0.1,0-0.2
			C262.9,149.7,262.9,150,262.9,150.3z M263,145.9c0,0.9,0,1.8,0,2.7v-1.3c0,0.6,0,1.2,0,1.7v-2.8C263,146.1,263,145.9,263,145.9
			L263,145.9z M260.7,143.6c0.5,0,0.9,0.1,1.3,0.1l-0.4,0.1c0.4,0,0.9,0.1,1.3,0.1v0.1v-0.1h-0.5H261c0,0.6-0.1,1.3-0.2,1.9
			c0-0.7,0-1.3,0.1-2l0,0c0,0.4,0,1.2-0.1,1.2C260.7,144.5,260.7,144,260.7,143.6L260.7,143.6z M260.7,148.2l0.1-0.4v0.9
			L260.7,148.2z M260.8,163.8c0,1,0,2.9,0.1,3.6c0,0.1,0,0.2,0,0.3c0-0.1,0-0.2,0-0.3c0,0,0,0-0.1,0.1c0,0.1,0,0.2,0,0.3
			c0-0.1,0-0.2,0-0.3c0-0.4,0-0.8,0-1.2c0,0.3-0.1,0.7-0.1,1c-0.1-0.9,0.3-2.8-0.1-2.2C260.7,164.7,260.8,163.4,260.8,163.8
			L260.8,163.8z M260.6,178.3v1.9C260.6,179.5,260.6,178.9,260.6,178.3L260.6,178.3z M260.5,178v0.5
			C260.5,178,260.5,177.9,260.5,178l0-0.4C260.6,178.6,260.5,178.1,260.5,178L260.5,178z M260.5,189.8l-0.1-1.5
			C260.6,188.8,260.7,189.3,260.5,189.8z M263.1,175.1c0,0.4,0,0.6-0.1,0.5c0,0.2,0,0.6,0,0.8C263,175.9,263,175.5,263.1,175.1
			l0-0.4C263.1,174.8,263.1,174.9,263.1,175.1L263.1,175.1z M263.5,171.8c0.1-0.9-0.2-1.5,0-1.7c0,0.2,0,0.4,0,0.7
			c0.1-0.1,0.1-0.7,0.2-0.3C263.6,171,263.5,171.4,263.5,171.8L263.5,171.8z M263.7,163.4l-0.1,0.2v-0.2c-0.1,0.3-0.1,0.6-0.2,0.9
			c0.1-0.8,0.3-1.7,0.6-2.5C263.8,162.3,263.4,163.6,263.7,163.4L263.7,163.4z M266.5,155.4c0.4-0.6,0.4-0.9,0.8-1.2
			C267.1,154.6,266.8,155,266.5,155.4L266.5,155.4z M267.5,153.7c0.6-0.9-0.4,0.3-0.1-0.3l-0.3,0.5c0.4-0.8,0.4-0.5,0.8-1
			c-0.1,0.1-0.2,0.2-0.2,0.4c-0.1,0.3,0.4-0.5,0.6-0.5C268,153.1,267.3,154.1,267.5,153.7L267.5,153.7z M275.5,147.1
			c0.2-0.1-0.1-0.1-0.4,0c0.4-0.1,0.7-0.3,1.1-0.4C276.2,146.7,275.8,146.9,275.5,147.1L275.5,147.1z"/>
		<path id="Path_65" class="st0" d="M286.1,179c0,0.1,0.1,0.3,0.1,0.4C286.2,179.3,286.2,179.2,286.1,179z"/>
		<path id="Path_66" class="st0" d="M302.4,169.3L302.4,169.3z"/>
		<path id="Path_67" class="st0" d="M319.3,138.1c0.2,0.1,0.5,0.1,0.8,0.2C320.2,138.2,319.9,138.1,319.3,138.1z"/>
		<path id="Path_69" class="st0" d="M287.8,163.8l-0.1,0.5v0.1L287.8,163.8z"/>
		<path id="Path_70" class="st0" d="M517.3,131.9c0.2,0.1,0.5,0.1,0.8,0.2C518.1,132,517.9,131.9,517.3,131.9z"/>
		<path id="Path_71" class="st0" d="M353.3,149.2c0.3-0.1,0.6-0.3,0.9-0.4L353.3,149.2z"/>
		<path id="Path_72" class="st0" d="M260.5,173.5L260.5,173.5z"/>
		<path id="Path_73" class="st0" d="M491.7,172.1c0,0.1,0.1,0.3,0.1,0.4C491.8,172.4,491.8,172.3,491.7,172.1z"/>
		<path id="Path_74" class="st0" d="M482.2,144.3c-0.1,0.1-0.1,0.2-0.1,0.2c-0.1,0.4-0.2,0.8-0.3,1.2c-0.4,0.9-0.9,1.9-1.3,3
			l0.4-0.8v0.1l-0.5,1.1v-0.1c-1.2,2.8-2.4,6-3.6,8.4c0.6-1.3,0.1,0.1,0.3-0.1c-1.1,2.2-2,4.4-2.9,6.6c0,0,0,0.2,0.2-0.1l-0.7,1.4
			l0.1-0.2c-1,2.6-2.4,5.3-3,7.1c0.5-1,0.5-1,0.6-1.1c-0.8,1.8-1.5,3.6-2.4,5.7c0.1-0.1,0.1-0.2,0.1-0.2c-0.2,0.6-0.5,1.2-0.8,1.8
			l0.1,0.1c-0.5,1.1-1,2.5-1.6,3.8c-0.1,0.6-1.4,3.1-2,4.7c-0.3,0.6,0.6-1.2,0,0.4c-0.2,0.1-0.4,0.6-0.6,1.1l-0.2,0.4l-0.1,0.1
			c0,0-0.1,0-0.1,0c0,0.2-0.1,0.3-0.1,0.5v-0.1v-0.2c0,0.2-0.1-0.1-0.1-0.2c-0.1-0.6-0.3-1.1-0.6-1.6c0,0.1,0.1,0.3,0,0.2
			c-0.2-0.6-0.7-1.9-0.3-0.9c-0.4-1-1.6-4.2-1.2-2.7c0.3,0.6,0.5,1.2,0.7,1.8c-0.1,0-0.7-1.5-0.9-1.8l-0.1-0.4l-0.1-0.2
			c-0.6-1.9-1.4-3.6-1.8-5c-0.2-0.3-0.3-0.6-0.5-1l0.1-0.1l-0.8-1.9l0.2,1c-0.9-2.1-1.3-3.6-1.9-5.4c-0.4-0.4-1.3-3.4-2.1-4.8
			l0.5,1.4c-1.1-2.9-1.4-3.3-2.5-6c1,2.2,1,2.3,2.5,5.5c-1.4-3.3-2.2-5.8-3.6-8.8c0,0.2,0.3,1,0,0.3c-0.1-0.6-1.2-2.9-0.9-2.5
			c-0.4-0.9-0.6-1-0.9-1.6l-1.1-3.2v0.1c-0.6-1.3-1.2-2.6-1.7-3.9L445,143l-4.1-0.1l1.6,4c0.4,0.9,0.8,1.9,1.2,2.8v-0.1l0.5,1.4
			c-0.4-1.1,0.3,0.4,0.4,0.5l1.3,3.5c0.1,0,0.1-0.2-0.2-1.1c0.6,1.3,1,2.7,1.5,3.9l-0.1-0.4l0.4,1.2l0.1-0.1c0.8,1.9,1.8,4.3,2,5
			l0-0.3l0.7,2.1l-0.4-1.2c1,2.3,2.3,5.8,2.5,6.2v-0.2c0.2,0.3,0.3,0.7,0.4,1.1V171c1.4,3.4,1.9,4.3,3.4,8.2c0.5,1-0.2-0.6-0.2-0.6
			c0.3,0.7,0.6,1.5,0.9,2.2c0-0.4-0.7-1.9-0.1-0.8c0.3,0.9-0.1-0.6,0.5,0.9l0.1,0.7c0.3,0.5,0.5,1,0.7,1.5c0.6,1.6-1-1.8,0,0.7
			c0.5,1.2,1.4,2.5,2.3,4.9c0.9,2.1-0.2-1.2,0.9,1.7l-0.3-1l0.9,2.1l0.1,0.2l0-0.1l0.9,2.2h0.5c0.4,0,1,0,1.6,0l0.9-2.2l0.3-0.7
			l0.1-0.2l0,0l1.1-2.6v0.1c0.3-0.9,0.6-1.7,1.1-2.6c-0.3,0.9-0.6,1.8-1,2.7c1.4-3.3,1.6-3.3,2.7-6.1l-0.2,0.4
			c0.6-1.8,1.5-3.6,2.2-5.1c-0.1,0.4-0.1,0.6,0,0.4c1.3-3.4,2.7-6.8,4.3-10.7l0.6-1.1l-0.1-0.1c0.7-1.9,0.3-0.4,0.8-1.6
			c-0.2,0.5-0.2,0.4-0.2,0.5c0.4-0.8,0.7-1.6,1-2.5c-0.4,0.5-1,2.4-1,1.8c1-2.2,2.4-5.6,2.8-5.8c1.6-4.1,3.8-9.1,5.2-12.6
			c0.1-0.3,0-0.2,0-0.1s-0.1,0.2-0.1,0.1c0.2-0.3,0.3-0.7,0.5-1l0.6-1.4l-3.6,0.1L482.2,144.3z M466.7,185.2
			c-0.3,0.4-1.5,3.4-1.5,2.8l1.3-3.2c0.1-0.3,0.3-0.6,0.4-0.9c-0.3,1.4-0.2,0.5-1,2.7C466.9,184.1,466.6,185.1,466.7,185.2
			L466.7,185.2z M457.7,176.2c0,0.3,0.1,0.7,0.3,1l-0.4-1C457.6,176,457.6,176,457.7,176.2L457.7,176.2z M459.7,181.5l0.1,0.4l0-0.1
			l-0.5-1.2L459.7,181.5z M454.1,172l-0.4-1.2C453.9,171.1,454.3,172.3,454.1,172z M454.3,172.8l0.1,0.7l-0.2-0.6L454.3,172.8z
			 M458,181.9c-0.1-0.1-0.1-0.3-0.1-0.4c-0.2-0.6-0.4-1.2-0.7-1.7c0.1,0.3,0.2,0.7,0.4,1c-0.1-0.3-0.4-0.7-0.6-1.3
			c0.4,0.6,0.2,0.1,0.3,0.1c0.8,1.7,0.6,1.7,0.6,1.9S458.1,181.9,458,181.9L458,181.9z M458.4,182.6l-0.1-0.8l0.3,0.8L458.4,182.6z
			 M478,154.9l0.2-0.5C477.8,155.8,478,155.1,478,154.9l-0.3,0.6C477.9,154.9,478,154.9,478,154.9z M478,155.4l-1,2.5
			C477.3,157,477.6,156.2,478,155.4z M477,158.7L477,158.7c-0.2,0.4-0.3,0.6-0.3,0.5C477.1,158.3,476.9,158.8,477,158.7L477,158.7z
			 M473.3,167.5c0.2-0.5,0.4-0.9,0.5-1.4v0.4c-0.4,0.9-0.9,1.8-1.4,2.7C473,167.6,473.4,167.3,473.3,167.5L473.3,167.5z
			 M472.5,168.5c-0.1,0.7-0.4,1.4-0.7,2L472.5,168.5z M462.1,187.2l-0.6-1.4c0.1,0,0.1,0,0.2,0.1
			C461.8,186.4,461.9,186.8,462.1,187.2z M459.9,181.7c-0.3-0.6-0.5-1.2-0.6-1.8l-0.2-0.6c0.1,0.2,0.2,0.4,0.2,0.6
			c0.2,0.6,0.3,0.8,0.2,0.7C459.6,180.9,459.8,181.4,459.9,181.7z M459.2,178.1c-0.2-0.4-0.4-0.7-0.3-0.8L459.2,178.1z M457.4,173.7
			c0.2,0.6,0.4,1.2,0.5,1.8c-0.4-1.2-1-1.9-0.9-2.2c0.1,0.4,0.2,0.6,0.3,0.9C457.4,173.9,457.1,173.2,457.4,173.7L457.4,173.7z
			 M453.3,164.4v0.3l-0.1-0.3l0.4,1.2c-0.5-1.1-0.9-2.2-1.2-3.4C452.6,162.9,453.2,164.8,453.3,164.4L453.3,164.4z M451.4,161
			l-0.1-0.3v-0.1C451.3,160.7,451.4,160.9,451.4,161L451.4,161z M448.7,152.8c-0.3-0.6-0.5-1.3-0.7-2
			C448.4,151.5,448.6,152.1,448.7,152.8L448.7,152.8z M447.6,150.2c-0.6-1.4,0.1,0.8-0.3-0.2l0.3,0.7c-0.6-1.2-0.2-0.9-0.6-1.8
			l0.2,0.6c0.3,0.4-0.3-0.9-0.3-1C447.3,149.3,447.9,150.8,447.6,150.2L447.6,150.2z M444.4,149.3c0.1,0.2,0-0.1-0.1-0.5l0.7,1.6
			C444.8,150.1,444.6,149.7,444.4,149.3L444.4,149.3z M451.4,167.4c-0.2-0.5-0.5-1-0.6-1.5C451,166.4,451.2,166.9,451.4,167.4z
			 M451.3,167.3c0.3,0.7,0.6,1.4,0.7,2.1C451.7,168.7,451.4,168,451.3,167.3z M458.5,183.6l-0.2-0.6c0-0.1,0-0.1,0-0.2l0.4,1
			C458.7,183.9,458.7,183.9,458.5,183.6L458.5,183.6z M468,186.3l0.4-0.9c0.1-0.1,0.1-0.2,0.1-0.3
			C468.3,185.5,468.1,185.9,468,186.3L468,186.3z M469,184.1l0.7-1.7c-0.3,0.8-0.6,1.5-0.9,2.2l1.5-3.7c0.1-0.1,0.2-0.3,0.2-0.3
			C470.1,181.2,469.4,183.4,469,184.1L469,184.1z M473.2,174c-0.3,0.9-0.7,1.9-1.2,2.8l0.1-0.5c-0.3,0.6-0.6,1.2-0.9,1.7l0.4-0.9
			l0,0c0.6-1.5,1.2-2.9,2-4.3c-0.3,1-1,2.2-1.1,2.5C472.7,174.9,472.9,174.4,473.2,174L473.2,174z M475,169.7l-0.4,0.6l0.5-1.1
			L475,169.7z M473.6,172.4l1.9-4.7c0.3-0.6,0.6-1.3,0.9-1.9l-0.2,0.3l0.5-1.2c0-0.1,0.1-0.3,0.4-0.7
			C476,166.9,474.8,169.7,473.6,172.4L473.6,172.4z M480,157.1l-0.3,0.7l0.4-1L480,157.1z M481.5,153.2l1.3-3.1l0.2-0.5
			C482.6,150.9,482.1,152,481.5,153.2L481.5,153.2z M485.3,144.2c-0.2,0.6-0.5,1.1-0.7,1.7c0.1-0.2,0.2-0.4,0.3-0.6
			c0.1-0.3,0.3-0.6,0.4-0.8c-0.3,0.8-0.6,1.6-1,2.3c-0.3,0.7-0.5,1.1-0.2,0.8c-0.2,0.5-1,2.1-0.8,1.5c0.6-1.3,1.5-3.7,1.9-4.8
			c0-0.1,0.1-0.3,0.1-0.4c0,0.1-0.1,0.3-0.1,0.4C485.1,144.3,485.2,144.3,485.3,144.2c0.1-0.1,0.2-0.4,0.3-0.5
			C485.5,143.8,485.4,144,485.3,144.2L485.3,144.2z M482.9,144l-0.8,2.1c0.1-0.4,0.5-1.4,0.6-1.7L482.9,144z"/>
		<path id="Path_75" class="st0" d="M507.7,162.6L507.7,162.6z"/>
		<path id="Path_76" class="st0" d="M260.5,152.2L260.5,152.2z"/>
		<path id="Path_77" class="st0" d="M365.5,142l0.3-0.1h-0.2C365.5,141.9,365.5,142,365.5,142z"/>
		<path id="Path_78" class="st0" d="M250.5,152c0-0.1,0.1-0.1,0-0.1l-0.2-0.2c-0.3-0.4-0.7-0.7-0.9-1.1c-0.1-0.1-0.2-0.1-0.4-0.2
			c-0.4-0.4-0.8-0.8-1.2-1.2c-0.2,0.1-1.9-1.4-2.2-1.4c-1.6-1,0.3,0-0.3-0.3c-1.6-0.9-3.2-1.7-4.9-2.4c-1.4-0.5-2.9-0.8-4.3-1.1
			l-0.1-0.1c-0.7-0.1-1.4-0.1-2.1-0.2c0,0,0.1,0,0.2,0c-1.1-0.1-2.3-0.1-3.4,0l-1.6,0.1c-0.5,0-1,0.1-1.6,0.2
			c0.1-0.1,0.1-0.1,1.3-0.4c-2.7,0.3-5.4,1.1-7.9,2.2l0.2-0.1l-1.5,0.8c0.3-0.2,0.1-0.1,0.1-0.2c-1.3,0.7-2.6,1.5-3.8,2.5
			c-0.5,0.4-1,0.9-1.4,1.4c-0.4,0.3-0.7,0.7-0.9,1.1c0.5-0.6-1,0.9,0.1-0.4c-2.2,2.5-3.9,5.3-5.1,8.4v-0.1l-0.4,1.3l-0.1,0.1
			l0.3-0.9c-0.2,0.6-0.4,1.2-0.5,1.8l-0.3,1.6c-0.2,0.4-0.4,0.8-0.4,1.2c0,0.7-0.1,1.4-0.3,2.1c-0.1,1.1-0.2,2.2-0.1,3.2
			c0,0.2-0.1-0.7-0.1-0.1c0,2.3,0.4,4.7,1,6.9c0.7,2.5,1.7,4.8,2.9,7c0.6,0.6,1.2,1.3,1.7,2c0.4,0.5,1,1.1,1.4,1.6
			c0.5,0.5,1,1,1.6,1.4c0.4,0.5-1.1-0.9-1.7-1.3c0.6,0.7,1.3,1.4,2,2h-0.1c0.3,0.2-0.2-0.4,1.2,0.8v0.1c0.4,0.2,0.8,0.5,1.2,0.6
			c3.5,2.2,7.4,3.5,11.6,3.8c0.2,0,0.1-0.1-0.4-0.1c0.9,0,1.9,0,2.9,0c1,0,2-0.2,3-0.2l-0.5,0.1c1.1-0.1,2.2-0.3,3.3-0.6
			c0.7-0.2,1.5-0.5,2.8-1.1c-0.7,0.3-1.4,0.5-2.1,0.7c0.3-0.1,2.1-0.8,2.8-1H241c1.1-0.5,2.2-1,3.3-1.7l-0.2,0.1l0.6-0.4l0.1-0.1
			c0.6-0.4,1.2-0.8,1.8-1.2c0.4-0.3,0.8-0.6,1.2-1l0,0c0.1-0.1,0.2-0.2,0.3-0.3l0.3-0.2l-1.2-1.4c-0.8,0.7-1.6,1.4-2.5,2
			c0.3-0.2,0.6-0.4,0.9-0.7c-2.6,1.9,0.2-0.3-1.8,1c-1.6,1-3.3,1.7-5.2,2.1c-2.6,0.8,1.1-0.2-0.6,0.4c-0.5,0.2-1.1,0.3-1.7,0.3
			c-0.2,0.1-0.4,0.2-0.6,0.3c-1.7,0.3-0.1-0.1-1.1,0.1c-1.4,0,0.4-0.1,0.7-0.3c-0.8,0.2-1.6,0.3-2.4,0.3c0,0,1.8-0.2,0.7-0.1
			c-1.6,0.2-3.1,0.1-4.7-0.1l-1.9-0.3l-2.3-0.6c0.1,0,0.2,0,0.3,0c-0.3-0.1-0.7-0.3-1-0.5h0.2c-0.9-0.3-1.7-0.6-2.5-1
			c-0.6-0.3-1.3-0.6-1.9-1c-0.6-0.3-1.2-0.7-1.7-1.1l1.1,0.7c-0.6-0.4-1.2-0.8-1.8-1.2c0.1,0,0.2,0,0.3,0c-0.6-0.4-1.2-0.8-1.7-1.3
			c-0.7-0.8-1.4-1.6-2-2.5l0.1-0.1c-0.3-0.3-0.5-0.6-0.8-1l0.3,0.3c-0.3-0.5-0.7-1.1-1.1-1.7c-0.3-0.6-0.6-1.3-0.9-2
			c0.4,0.9,0.6,1,0.6,0.9c-0.3-0.6-0.6-1.1-0.8-1.7c-0.2-0.6-0.5-1.2-0.6-1.8c0-0.1-0.3-1.7,0-0.6c-0.2-0.5-0.3-0.9-0.4-1.4l0.1,0.1
			c-0.4-2.8-0.5-5.7-0.2-8.5c0.3-2.8,1.2-5.5,2.7-7.9v0.1c0.5-1.1,1.1-2.1,1.8-3c0.4-0.5,0.6-0.5,1.4-1.2c-0.4,0.2,1.4-1.4,1.9-1.8
			c0.7-0.4,0,0.1-0.1,0.3c2.5-2,5.4-3.3,8.6-4c-1.1,0.2-2.3,0.5-3.4,0.8c-0.7,0.3-1.3,0.5-2.4,1.1c0.9-0.5,1.9-1,2.9-1.3
			c0.4-0.1,0.8-0.3,1.4-0.4l1.9-0.5l-1.4,0.4c1.6-0.3,4.8-0.9,5.3-0.6c1.9-0.2,3.9-0.1,5.8,0.3c-0.3,0-0.7,0-1,0
			c0.7,0.1,1.4,0.3,2,0.4l0.1-0.1c0.4,0.1,0.7,0.2,1.1,0.4c1.8,0.5,3.4,1.2,5,2.1l0.1,0.2l0.4,0.2c0.3,0.3,1.5,1.3,1.5,1.4
			c-0.5-0.4-1.7-1.2-1.6-1.2c-0.7-0.4-0.3-0.1,0.4,0.4c0.7,0.5,1.3,1,1.9,1.6c-0.4-0.4-0.3-0.4-0.1-0.2l0.4,0.4l0.2,0.2l0.3,0.4
			c0.1,0.1-0.1-0.1-0.3-0.2l0.9,0.9l0.4,0.4c0,0,0.1,0.1,0.1,0.1l0.1-0.1l0.2-0.2l1.2-1.4L250.5,152L250.5,152z M248.5,153l0.1-0.1
			C248.6,152.9,248.6,153,248.5,153z M245.6,148.4c0.1,0.2-0.4-0.1-1-0.4c-0.6-0.4-1.3-0.7-2-1c-0.1-0.1-1-0.9,1.5,0.6
			c-2.1-1.3-1.4-0.6-2.7-1.4l0,0l0.4,0.2C243.2,146.8,244.4,147.5,245.6,148.4L245.6,148.4z M241.2,148l-0.1-0.1
			c0.4,0.1,0.7,0.3,1.1,0.5l0.1,0.1L241.2,148L241.2,148z M240.7,147.8l-0.1-0.1L240.7,147.8L240.7,147.8z M209.8,174.8
			c-0.1-0.6-0.2-1.2-0.3-1.8c0.1,0.5,0.2,0.8,0.2,0.6C209.6,174.2,209.8,174.7,209.8,174.8L209.8,174.8z M226.9,191.8l0.1-0.1
			l0.7,0.1L226.9,191.8z M224.7,191.4l1.3,0.2C226.4,191.8,225,191.5,224.7,191.4z M234.4,192l1.5-0.2c-0.4,0-0.7,0.1-1.1,0.2
			c0.7-0.1,1.3-0.2,1.9-0.4c0.1-0.1,0.3-0.2,0.4-0.2c0,0-0.1,0.1-0.4,0.2s-0.1,0.3-2.1,0.5C234.6,192.1,235.1,192.1,234.4,192
			L234.4,192z M238,191.4l0.1,0.1l-0.8,0.2L238,191.4z M209.8,180.5c-0.1-0.2-0.1-0.3-0.2-0.5C209.7,180.2,209.7,180.4,209.8,180.5
			L209.8,180.5z M215.8,149.7c0.1-0.1,0.2-0.2,0.3-0.3L215.8,149.7L215.8,149.7z M246.1,151.2c-0.1-0.1-0.1-0.1-0.1-0.2
			c0.4,0.3,0.7,0.6,1,0.9C246.7,151.7,246.4,151.4,246.1,151.2L246.1,151.2z M239.7,147.5c0.2,0.1,0.4,0.1,0.6,0.2
			c0.7,0.1,1.3,0.4,1.9,0.7c-0.3-0.1-0.8-0.4-1.1-0.5c0,0.1-0.1,0-0.8-0.2L239.7,147.5z M237.6,147.5c0.1-0.1,0.4,0.1,0.9,0.2
			L237.6,147.5z M236.1,146.4l0.8,0.1c-0.2,0-0.5,0-0.7,0C236,146.5,236,146.4,236.1,146.4L236.1,146.4z M234.1,146.7
			c-0.3,0-0.7-0.1-1-0.1c0.3-0.2,1.1,0.1,2.4,0.2c0,0.1-1.5-0.1-1.9-0.1C232.9,146.7,233.8,146.7,234.1,146.7L234.1,146.7z
			 M221.1,148.8c0.4-0.2,0.8-0.5,1.4-0.8c0.7-0.3,1.4-0.6,2.1-0.8l-1.2,0.5l0.3-0.1l-0.3,0.2c0.1-0.2-0.3-0.1-0.8,0.2L221.1,148.8z
			 M219.2,149.4L219.2,149.4l0.3-0.2L219.2,149.4L219.2,149.4z M212.5,157.6c0.3-0.7,0.6-1.3,1.1-1.9
			C213.2,156.4,212.9,157,212.5,157.6L212.5,157.6z M211.3,159.9c0-0.1,0.6-1.5,0.3-1l-0.3,0.6c0.4-0.9,0-0.6,0.7-1.8
			c-0.1,0.2-0.3,0.5-0.4,0.8c0.5-0.9-0.4,1.3,0.3-0.2C212.3,157.7,211.7,159.2,211.3,159.9L211.3,159.9z M221.1,189.1
			c-0.5-0.2-1-0.5-1.4-0.9C220.2,188.5,220.9,189,221.1,189.1L221.1,189.1z M223,189.7c-0.7-0.2-1.4-0.4-2.1-0.8
			C221.7,189.1,222.3,189.4,223,189.7L223,189.7z M239.2,190.7c-0.4,0.1-0.7,0.3-1.1,0.4c0,0,0.1-0.1,0.2-0.1l0.6-0.2
			C239,190.7,239.1,190.7,239.2,190.7L239.2,190.7z M247.8,187.8L247.8,187.8L247.8,187.8L247.8,187.8z M238.1,193.1
			c0.1,0,0.2-0.1,0.3-0.1c0.6-0.2,1.1-0.4,1.6-0.6C239.4,192.7,238.7,192.9,238.1,193.1L238.1,193.1z M233,194
			c0-0.1,0.3-0.1,0.5-0.2c1.6-0.1,3.1-0.4,4.6-0.8c-1,0.3-2,0.5-3,0.7c0.6-0.1,1.3-0.2,1.9-0.3C235.7,193.8,234.3,194,233,194
			L233,194z M227.1,193.7c-0.9-0.1-1.9-0.3-2.8-0.6c0.5,0.1,1.3,0.2,2.2,0.4l2.7,0.3h-0.1c0.3,0,0.6,0,0.9,0h-0.4
			c-0.5,0-1.1,0-1.6-0.1l0.5,0.1c-1.1,0-2.1-0.2-3.1-0.5C225.5,193.3,226.6,193.6,227.1,193.7L227.1,193.7z M222,192.2
			c-1.4-0.5-2.7-1.2-3.9-2c0.3,0.2,0.6,0.3,0.9,0.5c1.5,0.9,3.2,1.6,4.9,2.1C223.2,192.6,222.6,192.4,222,192.2L222,192.2z
			 M220.3,191.5l1.2,0.6l-0.7-0.2L220.3,191.5z M215.7,188.4c0.5,0.3,0.7,0.5,0.7,0.5c0.4,0.3,0.7,0.6,1.1,0.8l-0.4-0.2l0.3,0.2
			C216.9,189.3,216.3,188.9,215.7,188.4L215.7,188.4z M210.4,181.8l0.5,1l-0.4-0.6L210.4,181.8z M207.7,174.2c0,0.1,0.1,0.3,0.1,0.4
			c0.2,1.2,0.5,2.3,0.9,3.4l-0.4-1C208.1,176.1,207.8,175.1,207.7,174.2L207.7,174.2z M207.4,167.8c0,0.1,0,0.3-0.1,0.4
			c-0.1,1.8,0,3.6,0.3,5.4c0,0.7-0.3-1.2-0.5-1.7c0.4,0.8-0.2-2.1,0-3.4c0,0.5,0,1,0.1,1.4c0-0.4,0-1.2,0-1.8c0-0.2,0-0.3,0-0.5
			c0,0.2,0,0.3,0,0.5c0,0.1,0.1,0.2,0.1,0.1S207.3,167.9,207.4,167.8L207.4,167.8z M208,162.7c-0.2,0.8-0.3,1.6-0.4,2.5
			c0-0.2,0-0.4,0-0.6C207.7,163.9,207.8,163.3,208,162.7L208,162.7z M212.2,152.6l-0.4,0.6c0.1-0.1,0.7-0.7-0.3,0.5l0.3-0.5
			C211.7,153.3,211.8,153.2,212.2,152.6z M214.1,150.8c-0.2,0.2-1.4,1.5-1.9,2.1C212.7,152.1,213.4,151.4,214.1,150.8z M215,150.4
			L215,150.4c0.1-0.1-0.4,0.2,0.4-0.5C215.5,149.9,215.3,150.1,215,150.4L215,150.4z M219.3,147L219.3,147
			C219.3,147.1,219.3,147.1,219.3,147z M225.2,144.5c-1.3,0.4-1.4,0.6-3,1.2h-0.4c0.5-0.1,1.1-0.3,1.6-0.5
			C223.1,145.2,223.5,144.8,225.2,144.5L225.2,144.5z M226.7,144.1c-0.7,0.3-1.4,0.4-2.2,0.4c-0.2,0.1-0.5,0.1-0.7,0.2
			c0.2-0.1,0.5-0.1,0.7-0.2C225.3,144.4,226,144.2,226.7,144.1z M249.3,151.6c-0.3-0.3-0.6-0.6-0.9-1l0.6,0.6L249.3,151.6z"/>
		<path id="Path_79" class="st0" d="M263,194.4h-1.1C262.3,194.4,262.6,194.4,263,194.4z"/>
		<path id="Path_80" class="st0" d="M376.7,151.3l-0.1-0.1C376.9,151.6,376.8,151.5,376.7,151.3z"/>
		<path id="Path_81" class="st0" d="M263.7,178v0.1C263.7,177.8,263.7,177.9,263.7,178z"/>
		<path id="Path_82" class="st0" d="M263.9,173.6c-0.1,0.2-0.1,0.3-0.1,0.5C263.8,174.2,263.9,174,263.9,173.6z"/>
		<path id="Path_83" class="st0" d="M480.3,149.1L480.3,149.1l0.2-0.4L480.3,149.1z"/>
		<path id="Path_84" class="st0" d="M431.2,165.1v0.2V165.1z"/>
		<path id="Path_85" class="st0" d="M431.2,179.5L431.2,179.5z"/>
		<path id="Path_86" class="st0" d="M431.9,141.3L431.9,141.3C431.9,141.5,431.9,141.4,431.9,141.3z"/>
		<path id="Path_87" class="st0" d="M427.8,149.4c0.1-0.1,0.1-0.2,0.2-0.4C428,149,427.9,149.1,427.8,149.4z"/>
		<path id="Path_88" class="st0" d="M373.8,138.6L373.8,138.6l0.4,0.1L373.8,138.6z"/>
		<path id="Path_89" class="st0" d="M523.8,133.6h0.2C523.5,133.4,523.6,133.5,523.8,133.6z"/>
		<path id="Path_91" class="st0" d="M416.3,189.6l-0.7-0.9L415,188c0.3,0.3,0.5,0.7,0.7,1.1c0.1,0.1,0.1,0.2,0.1,0.3l-1-1.4
			c0,0,0-0.1-0.1-0.1l-0.1,0.1l-0.2,0.1l-0.3,0.3c-0.2,0.2-0.5,0.4-0.7,0.5c-0.6,0.4-1.3,0.8-2.1,1.1c0.1,0,0.1,0,0.2,0
			c-0.4,0.2-0.9,0.4-1.3,0.5v0.1c-0.9,0.3-1.9,0.5-2.9,0.6c-0.5,0.1-1,0.2-1.5,0.1c-0.7,0-1.3-0.1-2-0.3c-0.4-0.1,0.9,0.4-0.3,0.1
			c-0.1-0.2-1.5-0.6-1.4-0.9c-0.3-0.2-0.6-0.3-0.9-0.5l-0.1-0.2c-0.8-0.4-0.9-1-1.5-2.1c0,0.1,0.1,0.2,0,0.1
			c-0.2-0.4-0.5-1.3-0.2-0.6c-0.4-0.6-0.8-3.1-0.7-2c0.2,0.4,0.3,0.9,0.4,1.3c-0.1,0-0.4-1.1-0.6-1.3c0,0,0-0.2,0-0.3l-0.1-0.1
			c-0.2-1.3-0.3-2.6-0.2-3.9c-0.1-0.3-0.1-0.5-0.1-0.8h0.1v-1.6l-0.2,0.7c0-1.7,0.2-2.9,0.2-4.3c-0.2-0.4,0.1-2.7-0.1-4l-0.1,1.1
			c0-2.3-0.1-2.7,0-4.9c0.1,1.9,0,1.9,0.2,4.6c-0.1-2.7,0.1-4.7,0-7.2c0,0.2-0.1,0.8-0.1,0.2c0.1-0.5,0-2.3,0.1-2
			c0-0.8-0.2-0.9-0.2-1.4l0.2-2.6v0.1c-0.1-2-0.1-3.9,0-5.9l0.1-2.9c0-0.7,0-1.7,0-2v-0.1c0.1,0,0.3,0,0.4,0.1l0.5,0.1
			c-0.9-0.1,0.4-0.1,0.5-0.2l2.8,0.2c0.1-0.1-0.1-0.2-0.8-0.2c1.1-0.1,2.2,0.1,3.1,0.1l-0.3-0.1h1v-0.1c1.4,0,2.7,0,4.1,0.1
			l-0.2-0.2l1.6,0.1l-1-0.1c0.8,0,1.8,0,2.7,0l2.9,0.1V147v0.3c0-0.6,0-1,0-1.6l-0.1,0.4V144h-2h-1.2c-0.8,0-1.7,0-3,0
			c-0.9,0,0.5,0,0.5,0.1c-0.6,0.1-1.2,0.1-1.8,0c0.2,0.1,1.6,0.1,0.6,0.2c-0.7-0.1,0.5,0.1-0.8,0.1l-0.5-0.2c-0.7,0-0.1,0.1-1.2,0.1
			c-1.3-0.1,1.5-0.2-0.5-0.2c-1.4,0.2-2.7,0.3-4.1,0.3c-1.7,0.1,0.9,0.3-1.5,0.2l0.8,0.1h-5.6v0.4c-0.1,0.7,0,2.2,0,3.1v2.9
			l-0.1-0.1c0.1,0.7,0.1,1.4,0,2.1c-0.1-0.7-0.1-1.4-0.1-2.2c0,2.7-0.3,2.8-0.2,5.1l0-0.4c0.1,1.4-0.1,2.9-0.1,4.2
			c0-0.4-0.1-0.4-0.1-0.3c0.1,2.8,0,5.5,0.1,8.7l-0.1,0.9l0.1,0.1c0,1.4-0.1,0.6-0.1,1.1c0-0.1,0-0.1,0-0.2c-0.1,1.8,0.1,1,0.1,2
			c0.1-0.5,0-1.9,0.2-1.5c-0.1,1.8-0.1,4.6-0.3,4.9c0.1,1.7,0,3.5,0,5.4c0,1.7,0.2,3.4,0.6,5c0.1,0.4,0-0.3,0-0.1
			c0.1,0.8,0.4,1.5,0.7,2.2c0.3,0.4,0.5,0.9,0.7,1.4c0.2,0.3,0.4,0.5,0.7,0.7c0.4,0.8,1,1.4,1.7,2l-0.5-0.5h0.1
			c0.2,0.2,0.5,0.5,0.7,0.7l0,0c2,1.4,4.4,2.1,6.9,2c-1.2-0.1,0.3-0.2-0.3-0.2c1.9,0.1,3.9-0.2,5.6-0.9c0,0,0.1-0.1-0.1-0.1
			c0.4-0.1,0.8-0.2,1.1-0.4h-0.2c1-0.5,2-1,2.9-1.6l1-0.7l0.2-0.2c0-0.1-0.1-0.2-0.1-0.2L416.3,189.6z M405.5,191.8
			c0.3,0,0.6,0,0.8,0c-0.3,0.1-0.5,0.2-0.8,0.1c-0.2-0.1-0.5-0.1-1.4-0.1c2.1,0.2,1.3,0.2,1.2,0.4c-0.2-0.1-1-0.1-1.6-0.3
			s-0.9-0.3-0.7-0.4C403.9,191.7,404.7,191.8,405.5,191.8L405.5,191.8z M397.7,169l-0.1,0.2L397.7,169l-0.1,0.9c0-0.9,0-1.8,0.1-2.7
			C397.7,167.7,397.5,169.2,397.7,169z M397.5,181c0,0.1,0,0.3,0,0.4c0,0.5,0.1,0.6,0,0.6c0,0.2,0,0.6,0,0.9c-0.1-0.5-0.1-1,0-1.4
			L397.5,181z M397.3,179.1v-0.8c0-0.1,0.1-0.1,0.1,0C397.3,178.6,397.3,178.9,397.3,179.1L397.3,179.1z M397.3,166v-0.3v-0.1
			C397.3,165.8,397.3,165.9,397.3,166z M397.5,183L397.5,183c0-0.3,0-0.6,0-0.9C397.4,182.4,397.4,182.7,397.5,183L397.5,183z
			 M397.6,157.2v0.6c-0.1-1,0.1-0.7,0.1-1.4v0.5c0.1,0.4,0.1-0.7,0.1-0.8c0,0.5,0,1.8,0,1.3C397.8,156.3,397.7,158,397.6,157.2
			L397.6,157.2z M407.9,145.1c0.4,0,0.7,0,1.1,0c-0.5,0.1-0.1,0.1-0.2,0.2c-1.4,0.1-1.4-0.1-1.5-0.2s-0.3,0-0.3-0.1
			c0.1,0,0.2,0,0.3,0.1c0.5,0,0.9,0,1.4,0C408.4,145.1,408.2,145.1,407.9,145.1L407.9,145.1z M413.9,144.9h0.4l0,0.1
			C414.2,145,414,144.9,413.9,144.9L413.9,144.9z M414.5,145.9c0-0.1,0-0.3,0-0.4c0-0.2,0-0.3,0.1-0.2L414.5,145.9z M406.3,145.3
			l0.1-0.2l0.6,0.2L406.3,145.3z M401,190.3c-0.2-0.1-0.3-0.3-0.5-0.4L401,190.3L401,190.3z M400.3,189.8c-0.3-0.3-0.6-0.6-0.8-0.9
			C399.8,189.2,400.1,189.5,400.3,189.8L400.3,189.8z M398.3,186.3c0.1,0.4,0.2,0.7,0.3,1.1c-0.2-0.4-0.3-0.8-0.5-1.2
			C398.2,186.2,398.2,186.2,398.3,186.3L398.3,186.3z M398.1,179.6v0.7C398.1,179.9,398,179.6,398.1,179.6z M398.1,176.6
			c0,0.5-0.1,1-0.2,1.4c0.1-0.9-0.2-1.6,0-1.8c0,0.2,0,0.5,0,0.7C397.9,176.8,398,176.1,398.1,176.6L398.1,176.6z M397.9,159.6
			c0-0.5,0-1.1,0.1-1.6C398.1,158.5,398.1,159,397.9,159.6z M398.2,146.9c0.2,0,0-0.1-0.4-0.1h1.3
			C398.7,146.8,398.4,146.8,398.2,146.9L398.2,146.9z M411.5,147.3c0.4,0,0.8,0,1.2,0C412.3,147.3,411.9,147.3,411.5,147.3z
			 M413.7,147.5c-0.1,0-0.2,0-0.3,0c-0.3-0.1-0.5-0.1-0.8-0.1c0.3-0.1,0.7-0.1,1,0l0.3,0.1c0.2,0,0.4,0,0.6,0
			C414.1,147.5,413.8,147.5,413.7,147.5L413.7,147.5z M405.6,144.8h0.5h0.1h-0.8C405.4,144.8,405.4,144.8,405.6,144.8L405.6,144.8z
			 M395.4,167.6c-0.1,0.5-0.1,1.1-0.1,1.6l0.1-0.3v1c0,0.1,0,0.2-0.1,0.6c0-2.2,0-4.4,0.1-6.7V167.6z M395.4,152.5v0.7
			c0,0.1,0,0.2,0,0.2C395.4,153.2,395.4,152.8,395.4,152.5L395.4,152.5z M395.3,154.3v1.4c0-0.6,0-1.2,0-1.8v3
			c0,0.1-0.1,0.3-0.1,0.3C395.3,156.3,395.3,155.3,395.3,154.3L395.3,154.3z M395.2,160.3l0,0.4c0-0.5,0.1-1,0.1-1.5v0.7
			c0,1.2,0,2.4-0.2,3.5c0-0.7,0-1.3,0.1-2c0,0.4,0,1.2-0.1,1.2C395.1,161.9,395.1,161.1,395.2,160.3L395.2,160.3z M395.3,166.6
			l-0.1-0.4l0.1-0.5V166.6z M395.3,175.8v0.8l0-0.2L395.3,175.8z M395.4,179.5v0.5c0,0.7,0,1.4,0.1,2.1c0,0.1,0,0.2,0,0.3
			C395.3,181.5,395.3,180.5,395.4,179.5L395.4,179.5z M396.2,186.6C396.2,186.6,396.2,186.6,396.2,186.6c0,0.2,0,0.3,0,0.4
			C396.2,186.9,396.2,186.8,396.2,186.6c-0.2-0.3-0.3-0.9-0.4-1.2c0,0.3,0.1,0.7,0.2,1c-0.2-0.6-0.3-1.2-0.4-1.8
			c0-0.6-0.1-0.9-0.2-0.6c0-0.4-0.1-1.8,0-1.3C395.5,184.1,395.8,185.4,396.2,186.6c0.1,0.1,0.1,0.2,0.1,0.3
			C396.3,186.8,396.3,186.7,396.2,186.6L396.2,186.6z M397.2,189.1c0-0.1-0.1-0.2-0.1-0.3c0.2,0.5,0.5,1,0.9,1.4
			C397.7,189.8,397.4,189.5,397.2,189.1L397.2,189.1z M404.1,194.1l-0.4-0.1C404.9,194.1,404.3,194.1,404.1,194.1l0.5,0.1
			C404.1,194.2,404.1,194.1,404.1,194.1L404.1,194.1z M404.5,194c0.7,0,1.4,0,2.1,0C405.9,194.1,405.2,194.1,404.5,194z
			 M407.6,193.7c-0.8,0-0.3-0.1-0.5-0.1l0,0C407.4,193.7,407.7,193.7,407.6,193.7L407.6,193.7z M411,192.9L411,192.9L411,192.9z
			 M414,191.6c-0.4,0.2-0.7,0.4-1,0.6l0.2-0.2c1.2-0.5,1.2-0.5,2.2-1C414.3,191.8,413.9,191.7,414,191.6L414,191.6z M416.2,190.5
			l-0.4,0.3l-0.8,0.6c0.1-0.1,0.2-0.2,0.3-0.3l0.3-0.3c0.1-0.1,0.2-0.2,0.4-0.3c0.1-0.1,0.6-0.2,0.3-0.5c0.1,0.1,0.1,0.1,0.2,0.2
			L416.2,190.5z"/>
		<path id="Path_92" class="st0" d="M431.3,150.3v0.4C431.3,150.6,431.3,150.5,431.3,150.3z"/>
		<path id="Path_93" class="st0" d="M430.8,193.2L430.8,193.2l0.1-0.5L430.8,193.2z"/>
		<path id="Path_95" class="st0" d="M435,142.7v0.1c0,0,0,0.1,0.1,0L435,142.7z"/>
		<path id="Path_96" class="st0" d="M430.9,194L430.9,194l0-1C430.9,193.3,430.9,193.7,430.9,194z"/>
		<path id="Path_97" class="st1" d="M152.6,121.2h9.2l-0.2-57c-0.2-19.1-12.7-30.5-35.1-30.5c-11.9,0-19.8,2-27.9,5.8
			c-4.9,2.3-7.1,8.2-4.8,13.1c0,0,0,0,0,0c0.1,0.3,0.3,0.5,0.4,0.8l2.5,4.3c8.7-5.9,17.3-8.8,25.6-8.8c13.7,0,20.7,6.5,20.7,17.5
			v2.6H117C96.1,69.1,84.1,79.2,84.1,95c0,15.3,11.8,26.9,30.5,26.9c12.6,0,22.5-3.8,28.7-11.4v1.4
			C143.4,117,147.5,121.1,152.6,121.2L152.6,121.2z M143.2,90.6c-1,9.5-11.3,16.5-24.7,16.5c-10.4,0-16.8-5.1-16.8-12.9
			c0-8.3,5.7-11.6,18-11.6h23.5L143.2,90.6z"/>
		<path id="Path_98" class="st1" d="M64.2,100.4c-5.3,3.4-12,5.2-19.7,5.2c-15,0-25.8-11.3-25.8-27.8s10.8-27.8,25.8-27.8
			C55,50,63.3,53.7,69.4,59.9l10.3-12.1c-8-9.1-20.2-14.2-35.9-14.2C18,33.6,0,51.6,0,77.9s18,43.9,43.8,43.9
			c16.5,0,29.1-5.9,36.9-16.2l-4-3.9C73.3,98.4,68.2,97.9,64.2,100.4z"/>
		<path class="st1" d="M251.8,87.6c1.4,0.8,3,1.2,4.6,1.2c0.7-3.6,1-7.2,1-10.8c0-1.7-0.1-3.4-0.2-5.1c-2,0.7-9,0.6-8.4,1.7
			c-2.6-0.3-6.9-0.1-4.4,1.3c0.7,1.3,4.2,0.4,4.9,2.3s-1.2,3.5-0.5,5.4l3.4,0.4C252.9,85.3,251,87.6,251.8,87.6z"/>
		<path class="st1" d="M233.4,47.6l0.5,0.1c-0.2,2.3-0.6,4.6-1.2,6.8c0,0.2-0.1,0.5-0.1,0.7l-0.1,0.2l-0.6,6.4
			c5.6,0.2,11.1,0.8,16.4,1.4c-0.1,1.2-1.1,2.9-0.4,3.6c2.5,1.7,7.3,2.9,9.1,4.5c-2-16.3-10.8-28.5-23.9-34.2L233.4,47.6z"/>
		<path class="st1" d="M219.9,121.2c-1.5-3.4-5.6-3.6-9.3-3.1c-1.2,0.2-0.7-2.1-0.3-3.6c-4.7,2-5.8-2.9-10.4-1.6
			c0.6-2.2,2-5.3,1.9-7.4c-0.4-1.5-1-2.9-1.9-4.1c-0.4-2,0.6-10.9,0.4-13.2c-10.2-0.9-20.4-2.1-30.4-3.8c-3.3-1-0.5-3.1,2.2-4.6
			c-0.9,0.5-0.7-1.3-1.6-0.8c0.6-2.7,2.9-4.7,5.7-4.9l-2.6-0.3c-0.8-0.7,0.2-1.8,0.3-3c0.9,0.1,1.7,0.2,1.8-0.4l0.2-2.4l-3.4-0.4
			c1.2,0.1,2.3,0.2,1.5-1.4l0.5-1.4c1.8-0.5,4.2,1,6,0.6l0.2-1.8c-1.6-0.8-4.2-0.5-5.9-0.6c0.9-0.5,1-1.1,1.1-2.3
			c2.6-0.3,5,1.7,7.7,0.2l-2.5-0.3c2-2.8,6,0,8.6-0.3c3-0.4,11.3,0.4,14.5,0.8c0.1-1.4-0.6-1.5-0.4-3c5.4,1,1.4-1.9,1.6-2.4
			c0-0.1,0-0.2,0-0.3L206,39l17.1-4.8c-2.4-0.4-4.8-0.5-7.2-0.5c-13.6,0-24,5.5-30.4,15.7v-5.7c0-5.2-4.2-9.4-9.4-9.4c0,0,0,0,0,0
			h-9.4v108c0,6.5,5.3,11.8,11.8,11.8c0,0,0,0,0,0h7v-48c6.4,10.1,16.8,15.7,30.7,15.7c1.2,0,2.4-0.1,3.6-0.1
			C219.9,121.5,219.9,121.3,219.9,121.2z"/>
		<path class="st1" d="M226.3,90.1c-0.2,1.6-0.2,3.2-0.1,4.8c-2.4,11.3-0.2,16.4-2.7,26.3c16.4-2.5,28-13.4,32.2-29.4
			C246,91.3,236.2,90.7,226.3,90.1z"/>
		<path id="Path_101" class="st1" d="M502.2,33.6c-25.8,0.2-43.9,18-43.9,44.2s17.6,43.9,44.4,43.9c15,0,27.4-5.4,35.9-14.7
			l-5.2-5.5c-2.5-2.7-6.6-3.1-9.6-1c-5.8,4-12.7,6.1-19.7,6.1c-13.7,0-24-8.3-26.9-21.7h65.6C545.1,53.6,532.7,33.6,502.2,33.6z
			 M476.9,71.2c2.1-13.9,11.8-22.5,25.5-22.5c14.2,0,23.5,8.5,24.2,22.5H476.9z"/>
		<path id="Path_102" class="st1" d="M435.4,11.3v109.9h9.4c5.2,0,9.4-4.2,9.4-9.4l0,0V0h-7.5C440.4,0,435.4,5,435.4,11.3
			C435.4,11.3,435.4,11.3,435.4,11.3z"/>
		<path id="Path_103" class="st1" d="M389.8,33.6c-13.5,0-24,5.5-30.4,15.7V0h-8.2c-5.9,0-10.6,4.7-10.6,10.6c0,0,0,0,0,0v110.6h9.4
			c5.2,0,9.4-4.2,9.4-9.4v-5.6c6.4,10.1,16.8,15.7,30.7,15.7c24.8,0,41.1-17.8,41.1-43.8C431.3,51.6,414.5,33.6,389.8,33.6z
			 M385.9,105.8c-15.5,0-26.5-11.6-26.5-28.4c0-16.3,10.9-28.1,26.5-28.1s26.5,11.9,26.5,28.1C412.4,94.1,401.4,105.8,385.9,105.8z"
			/>
		<path id="Path_104" class="st1" d="M302.3,33.6c-12,0-20,2-28.1,5.9c-4.8,2.3-6.9,8-4.6,12.9c0.1,0.3,0.3,0.5,0.4,0.8l2.6,4.5
			c8.7-5.9,17.3-8.8,25.6-8.8c13.7,0,20.7,6.5,20.7,17.5v2.6h-26.3c-20.9,0.2-32.8,10.3-32.8,26.1c0,15.3,11.8,26.9,30.5,26.9
			c12.6,0,22.5-3.8,28.7-11.4v1.4c0,5.1,4.1,9.2,9.2,9.2c0,0,0,0,0,0h9.2l-0.2-57C337.2,45.1,324.7,33.6,302.3,33.6z M319,90.6
			c-1,9.5-11.3,16.5-24.6,16.5c-10.5,0-16.8-5.1-16.8-12.9c0-8.3,5.7-11.6,18-11.6H319L319,90.6z"/>
	</g>
</g>
</svg>
