<svg xmlns="http://www.w3.org/2000/svg" viewBox="0 0 55.34 53.97"><defs><style>.cls-1,.cls-2{fill:#fff;}.cls-1{fill-rule:evenodd;}</style></defs><title>Asset 1</title><g id="Layer_2" data-name="Layer 2"><g id="Layer_1-2" data-name="Layer 1"><path class="cls-1" d="M27.67,0a27.67,27.67,0,0,0-8.75,53.92c1.38.26,1.89-.6,1.89-1.33s0-2.84,0-5.15c-7.7,1.68-9.33-3.26-9.33-3.26-1.26-3.2-3.07-4-3.07-4-2.51-1.72.19-1.68.19-1.68a5.79,5.79,0,0,1,4.24,2.85c2.47,4.23,6.47,3,8,2.3a5.9,5.9,0,0,1,1.76-3.7C16.47,39.2,10,36.83,10,26.22a10.7,10.7,0,0,1,2.85-7.42,10,10,0,0,1,.27-7.33s2.33-.74,7.61,2.84a26.28,26.28,0,0,1,13.86,0c5.28-3.58,7.6-2.84,7.6-2.84a9.91,9.91,0,0,1,.27,7.33,10.65,10.65,0,0,1,2.85,7.42c0,10.63-6.47,13-12.63,13.66A6.62,6.62,0,0,1,34.56,45c0,3.7,0,6.68,0,7.59,0,.74.5,1.6,1.9,1.33A27.67,27.67,0,0,0,27.67,0Z"/><path class="cls-2" d="M10.48,39.73a.35.35,0,0,1-.47.08c-.21-.09-.32-.28-.25-.41s.27-.18.47-.09S10.55,39.59,10.48,39.73Z"/><path class="cls-2" d="M11.6,41c-.13.12-.39.06-.56-.13a.43.43,0,0,1-.09-.58.44.44,0,0,1,.57.13C11.7,40.6,11.74,40.85,11.6,41Z"/><path class="cls-2" d="M12.69,42.57c-.17.12-.45,0-.62-.24a.47.47,0,0,1,0-.66c.17-.12.44,0,.62.23S12.86,42.45,12.69,42.57Z"/><path class="cls-2" d="M14.19,44.11a.51.51,0,0,1-.71-.11.52.52,0,0,1-.16-.7c.15-.17.48-.12.71.1S14.35,43.94,14.19,44.11Z"/><path class="cls-2" d="M16.25,45c-.07.22-.38.32-.69.23s-.52-.35-.46-.57.38-.32.7-.22S16.31,44.78,16.25,45Z"/><path class="cls-2" d="M18.51,45.17c0,.23-.26.42-.58.42s-.6-.18-.61-.4.26-.42.59-.42S18.51,44.94,18.51,45.17Z"/><path class="cls-2" d="M20.62,44.81c0,.22-.19.45-.52.51a.54.54,0,0,1-.66-.3c0-.22.2-.45.52-.51S20.58,44.59,20.62,44.81Z"/></g></g></svg>