<svg xmlns="http://www.w3.org/2000/svg" viewBox="0 0 55 55"><defs><style>.cls-1{fill:#fff;}</style></defs><title>Asset 2</title><g id="Layer_2" data-name="Layer 2"><g id="Layer_1-2" data-name="Layer 1"><path class="cls-1" d="M52.25,0H2.75A2.75,2.75,0,0,0,0,2.75v49.5A2.75,2.75,0,0,0,2.75,55h49.5A2.75,2.75,0,0,0,55,52.25V2.75A2.75,2.75,0,0,0,52.25,0ZM20.06,40.17H14.88V23.4h5.18ZM17.37,20.1h0a2.54,2.54,0,0,1-2.62-2.65,2.55,2.55,0,0,1,2.68-2.64,2.55,2.55,0,0,1,2.66,2.64A2.56,2.56,0,0,1,17.37,20.1ZM40.19,40.17H35V30.61c0-2.3-1.29-3.46-3.35-3.46a3.12,3.12,0,0,0-2.92,2.08,3.85,3.85,0,0,0-.18,1.38v9.56H23.31s.07-15.27,0-16.87h5.21l0,2.24a5.65,5.65,0,0,1,5.16-2.88c3.75,0,6.55,2.44,6.55,7.7Z"/></g></g></svg>