<svg xmlns="http://www.w3.org/2000/svg" viewBox="0 0 33.39 33.89"><defs><style>.cls-1{fill:#ed1c25;}</style></defs><title>Asset 6</title><g id="Layer_2" data-name="Layer 2"><g id="Layer_1-2" data-name="Layer 1"><path id="Path_442" data-name="Path 442" class="cls-1" d="M33.37,20.78c-1.22-.13-2.46,0-3.33-.57-.31,0,.39-.83.13-1.29L29,18.79c-.24-.68.43-1.26.2-1.94s-1.5-.38-1.77-.84c-.87-.53.68-.58,1.59-.48-.26-.46,3.15-.32,3.2-.75.08-.86-2.37-1.34-3.52-2.11-.28-.25.09-.87.13-1.3-1.9-.2-3.89-.4-5.88-.48l.23-2.29,0-.08,0-.24a14.48,14.48,0,0,0,.42-2.44l-.19,0L23.31,0,13.58,2.71l-.31,6a.16.16,0,0,1,0,.1c-.08.18,1.37,1.21-.57.86-.07.51.18.55.13,1.06a33.83,33.83,0,0,0-5.23-.28c-.93.11-2.37-.91-3.1.1l.92.1c-1,.55-1.83-.19-2.77-.07,0,.43-.06.64-.39.82a7.36,7.36,0,0,1,2.14.23l-.07.65c-.64.15-1.53-.4-2.17-.22L2,12.53c.31.6-.1.56-.53.51l1.22.13L2.6,14c0,.22-.33.19-.64.15,0,.44-.39.83-.11,1.08l.92.1a2.19,2.19,0,0,0-2,1.74c.33-.18.26.47.59.28-1,.55-2,1.32-.78,1.66,3.6.6,7.26,1,10.94,1.37.09.85-.27,4.05-.12,4.75a4.48,4.48,0,0,1,.7,1.46,12.19,12.19,0,0,1-.69,2.67c1.62-.46,2,1.3,3.72.57-.14.53-.35,1.33.1,1.28C16.53,31,18,31,18.56,32.26c.08.51-.65,1.47-.42,1.6s1.1-.91,1.47-.7c1.28-4.17.3-5.94,1.22-10.33a7.62,7.62,0,0,1,0-1.72c4.05.25,8.1.46,12.09.72C33.6,21.67,33.33,21.21,33.37,20.78Z"/></g></g></svg>