<svg xmlns="http://www.w3.org/2000/svg" viewBox="0 0 147.73 138.28"><defs><style>.cls-1{fill:none;stroke:#f4f4f4;stroke-miterlimit:10;}</style></defs><title>Asset 5</title><g id="Layer_2" data-name="Layer 2"><g id="Layer_1-2" data-name="Layer 1"><path class="cls-1" d="M20.35,116.2C8.36,109.89.5,99.42.5,87.56c0-19.27,20.71-34.88,46.25-34.88S93,68.29,93,87.56s-20.71,34.88-46.25,34.88a60.8,60.8,0,0,1-11.84-1.16A55.73,55.73,0,0,1,6.75,131.82Z"/><path class="cls-1" d="M110.12,126.72C118.53,122.31,124,115,124,106.65c0-13.5-14.51-24.45-32.41-24.45s-32.42,11-32.42,24.45S73.72,131.1,91.62,131.1a42.33,42.33,0,0,0,8.3-.81,38.91,38.91,0,0,0,19.73,7.38Z"/><path class="cls-1" d="M121.27,83.57c15.68-8.25,26-21.94,26-37.45C147.23,20.92,120.15.5,86.75.5S26.27,20.92,26.27,46.12,53.35,91.73,86.75,91.73a79.78,79.78,0,0,0,15.49-1.51A72.78,72.78,0,0,0,139.06,104Z"/></g></g></svg>